<svg id="Layer_1" data-name="Layer 1" xmlns="http://www.w3.org/2000/svg" viewBox="0 0 167.46 172.0405">
    <path d="M500.4585,286.2456a354.5681,354.5681,0,0,1-26.5356,31.6724q-14.1242,14.986-29.1041,28.6758,8.5562,12.84,16.6919,25.894a257.6943,257.6943,0,0,1,14.5518,26.75,491.7942,491.7942,0,0,1-44.084-22.6846q-21.4065-12.4087-42.3721-25.2519l-8.9877-5.564q29.5319-16.6919,59.0639-31.8862Q469.2146,298.6649,500.4585,286.2456Zm-95.0156,60.3482a.3791.3791,0,0,0,.4277-.4278h-.4277Zm3.8515,2.5678q3.4212,2.1468,7.062,4.708,3.6313,2.5686,7.0621,5.1363a51.2357,51.2357,0,0,0-2.14-10.7q-1.7153-5.5569-5.1362-5.564Q412.712,342.7417,409.2944,349.1616Zm10.2725-10.7a8.4341,8.4341,0,0,1,4.4936,4.9219q1.0635,3.21,1.9263,6.6338a14.6379,14.6379,0,0,1,2.14-4.28,1.6726,1.6726,0,0,1,.2143-1.07.8758.8758,0,0,0,.2139-.6421c.8559-1.1367,1.7788-2.2808,2.7817-3.4243a9.4511,9.4511,0,0,1,3.6382-2.5679c.2808,0,.709-.2808,1.2842-.856a1.7419,1.7419,0,0,1,.4277-1.2841v-7.2759Zm23.54,28.6758V364.57l-11.9838-14.98a19.679,19.679,0,0,0-2.5679,5.564q-.8628,2.9993-1.7119,5.9922l2.14,1.7119a6.16,6.16,0,0,1,7.2764,3.8521l1.2837,2.14,2.9961,2.5684Zm13.6963-48.3638a3.036,3.036,0,0,0-.2138-1.2842,1.8188,1.8188,0,0,1-.2144-.8559q-3.8519,2.1467-7.7041,4.708a75.572,75.572,0,0,1-8.1318,4.708,15.7459,15.7459,0,0,0-1.07,4.4941,45.0031,45.0031,0,0,1-.6421,4.4937Zm-9.416,50.9317a8.1207,8.1207,0,0,0-1.498,2.14,8.1676,8.1676,0,0,1-1.4981,2.14q3.42,2.568,6.42,4.9219,2.99,2.3577,5.9922,4.9219a9.6042,9.6042,0,0,0,.4278-2.9956Zm12.84,14.124a4.7509,4.7509,0,0,0-.4278,2.1411q2.5678,2.1461,5.1358,4.0654a44.5462,44.5462,0,0,1,4.708,4.0664Zm0-69.7637a1.2367,1.2367,0,0,0,.8559-.4282,5.0027,5.0027,0,0,1,1.2842-.856Zm7.2758-4.708a16.2682,16.2682,0,0,0,4.28-2.9961Z" transform="translate(-380.6187 -286.2456)"/>
    <path d="M428.2388,458.2861a333.432,333.432,0,0,1,26.75-31.6718q14.3349-14.9766,29.3183-28.6758-8.5679-12.4087-16.6924-25.68a273.0249,273.0249,0,0,1-14.5517-26.9644,472.3079,472.3079,0,0,1,43.87,22.6841q21.186,12.4189,42.1572,25.2525l8.9883,5.5634q-29.1108,16.692-58.85,31.8858Q459.4765,445.8774,428.2388,458.2861ZM456.9146,438.17a8.1739,8.1739,0,0,1,2.1406-1.498,8.1186,8.1186,0,0,0,2.14-1.4981A16.3384,16.3384,0,0,0,456.9146,438.17Zm12.4121-79.6079q-2.568-2.1365-5.1358-4.0659-2.5679-1.9263-5.1357-4.0659l9.416,10.2719Zm-.4278,71.9038-1.7119.8565A2.4635,2.4635,0,0,1,468.8989,430.4658Zm12.4121-55.64a8.1793,8.1793,0,0,0,1.4981-2.14,8.1108,8.1108,0,0,1,1.498-2.14L471.895,361.13a3,3,0,0,1-.2138,1.2837,2.921,2.921,0,0,0-.2149,1.2841q2.5693,2.9994,5.1367,5.564A44.8629,44.8629,0,0,1,481.311,374.8262Zm-9.416,50.9316c.28,1.4317.5684,2.1406.8555,2.1406l15.4082-9.416a23.564,23.564,0,0,0,1.2842-4.4941q.4218-2.3481.8554-4.4942ZM485.59,377.394v2.5679a60.547,60.547,0,0,1,6.2061,7.2764,96.4287,96.4287,0,0,0,6.206,7.7041,50.3289,50.3289,0,0,0,2.3545-5.5645q1.0635-2.9883,1.9258-5.9917a4.5523,4.5523,0,0,1-2.14-1.7119q-4.7154.4314-7.7041-3.852l-1.2842-2.14-2.9961-2.5678ZM509.13,406.07a8.3709,8.3709,0,0,1-4.4932-4.9219q-1.0737-3.2094-1.9268-6.6338l-1.7119,4.7081c0,.2871-.2871.7148-.8554,1.2841q-1.2847,1.7139-2.7823,3.4229a9.4077,9.4077,0,0,1-3.6377,2.5683c-.288,0-.7158.2881-1.2841.8565v1.2832a19.7036,19.7036,0,0,0-.4278,3.8525v3.4239a73.1743,73.1743,0,0,0,8.7735-4.708Q504.8482,408.6381,509.13,406.07Zm10.2724-10.7q-3.4307-2.1357-7.0625-4.708-3.64-2.5679-7.0615-5.1357.8526,5.1357,2.3535,10.914,1.4956,5.7774,4.9229,5.7774Q515.5435,402.2178,519.4028,395.37Zm3.4239,2.9961h.8564l-.4287-.4277Z" transform="translate(-380.6187 -286.2456)"/>
    <g>
      	<path d="M410.665,348.0894a.5922.5922,0,0,1,.0957.0737.6064.6064,0,0,1,.0782.0952.42.42,0,0,1,.0527.1069.2774.2774,0,0,1,.0156.1114.1559.1559,0,0,1-.0215.0639.1342.1342,0,0,1-.0566.0508.0842.0842,0,0,1-.0762-.0024l.01.0024.0078,0a.2424.2424,0,0,0-.0088-.104.4535.4535,0,0,0-.0488-.1133.52.52,0,0,0-.0723-.102.3754.3754,0,0,0-.083-.0723.1885.1885,0,0,0-.082-.0278.1244.1244,0,0,0-.086.0249.3192.3192,0,0,0-.0078.1006.5082.5082,0,0,0,.02.1191.455.455,0,0,0,.0468.1123.2072.2072,0,0,0,.0723.0776.17.17,0,0,0,.0391.0171.1032.1032,0,0,0,.0429.0039l-.0058.0034a.06.06,0,0,0-.0069.0386.0983.0983,0,0,0,.0108.0366.0964.0964,0,0,0,.0244.0308.11.11,0,0,0,.0342.02.1425.1425,0,0,0,0-.0537.2468.2468,0,0,0-.0176-.05.2336.2336,0,0,0-.0293-.0464c-.01-.0151-.0215-.03-.0312-.0434-.0235-.03-.0479-.06-.0723-.0894a.662.662,0,0,1-.0645-.0957.2088.2088,0,0,1-.0156-.0366.15.15,0,0,1-.01-.04.0881.0881,0,0,1,.004-.0391.0638.0638,0,0,1,.0175-.0352.05.05,0,0,0-.0019.0318.1059.1059,0,0,0,.0176.0307.3331.3331,0,0,0,.0234.0274.281.281,0,0,1,.0244.0229c.0127.0118.0283.0244.043.0371l.042.0367c.0332.03.0644.0595.0957.0908a.3849.3849,0,0,1,.0761.1064.1807.1807,0,0,1,.0166.0679.1189.1189,0,0,1-.0175.0664.0959.0959,0,0,1-.0459.04.0766.0766,0,0,1-.0635-.004.1041.1041,0,0,1-.0361-.0258.108.108,0,0,1-.0254-.0381.1133.1133,0,0,1-.0088-.044.0874.0874,0,0,1,.0156-.0415.1655.1655,0,0,1-.0928.0142.203.203,0,0,1-.0859-.03.2764.2764,0,0,1-.0928-.0928.3268.3268,0,0,1-.0439-.1225.3779.3779,0,0,1,.0019-.1328.3521.3521,0,0,1,.0469-.1236.2368.2368,0,0,1,.0684-.0757.1727.1727,0,0,1,.082-.0307.2113.2113,0,0,1,.09.0083A.37.37,0,0,1,410.665,348.0894Zm-.3261.229-.003.0136a.016.016,0,0,1-.0166.0093l-.01-.001-.001.0049a.0307.0307,0,0,1,.0059.0147.1036.1036,0,0,0,.038.0151l-.0019-.022-.001-.0219Zm-.0293.01c.0078.0034.0136.0029.0166-.0015s.0009-.0092-.001-.0156l-.0117-.0176-.002.0171A.0544.0544,0,0,0,410.31,348.3286Zm0,.0474a.16.16,0,0,0,.0049.0366c.0146.0059.0244.0063.0273,0s.002-.0142-.0059-.0264a.0238.0238,0,0,0-.0107-.0112l-.0117-.0083A.01.01,0,0,1,410.31,348.376Zm.0439-.1006a.0552.0552,0,0,0-.0264-.0342l-.0068.0186-.0049.021.02.0068c.0088.002.0147.001.0166-.0039Zm.01.1582-.0069-.0059-.0058-.0063a.024.024,0,0,1-.0137.0058l-.0156-.0019.0078.0166a.0186.0186,0,0,1-.002.0176.11.11,0,0,0,.0245.0151.1169.1169,0,0,0,.0283.0073A.29.29,0,0,1,410.3633,348.4336Zm-.0117-.1362a.0428.0428,0,0,1-.0127.0005l-.0137-.004a.0538.0538,0,0,1,.0117.0186l.0127.0083Zm-.0254.1611c.0029.0112.0088.022.0127.0327a.3147.3147,0,0,0,.0156.0313c.0059,0,.01-.001.0117-.0044s.002-.0069-.0019-.0127l-.0039-.0137a.0366.0366,0,0,0-.0118-.0112l-.0136-.0088Zm.0468-.2373a.028.028,0,0,0-.0126-.0142l-.0137-.0112a.1508.1508,0,0,0-.0176.04.211.211,0,0,0,.0332.0122l.0049-.0137Zm-.0117.2041a.1834.1834,0,0,1-.0068-.04l-.0078-.0014.0078.0171a.0192.0192,0,0,1-.002.0175Zm.0381-.2412a.1437.1437,0,0,0-.0273-.0347l-.0059.01-.01.0151-.0078.0161.0157.0083.0156.0054.0058-.0083.0059-.0064Zm-.041.0757v-.0025h-.002l.001.001Zm.0312.309c.0079.0015.0137,0,.0157-.0039s.0019-.0058,0-.0107l-.0069-.0137-.01-.0136-.01-.01a.0158.0158,0,0,1-.0185.0156l.0146.0186A.072.072,0,0,0,410.39,348.5688Zm-.0058-.0761-.0078,0-.0059-.0015a.0494.0494,0,0,1,.0078.0186l.0088.0053.01.0049Zm.043-.3291a.0267.0267,0,0,0-.0069-.0264l-.0185-.022-.0137.0142a.1209.1209,0,0,0-.0137.0161.1378.1378,0,0,1,.0215.0156.037.037,0,0,0,.0274.0049Zm-.03.3559.0088.0132Zm.0039.0611a.2071.2071,0,0,0,.0254.02.11.11,0,0,0,.0273.0171.0759.0759,0,0,0-.0166-.0254.1955.1955,0,0,0-.0205-.021A.0166.0166,0,0,1,410.4,348.5806Zm.042-.4922-.0176.0093-.0176.0127a.0691.0691,0,0,0,.0283.0122c.0088.0024.0147.0014.0186-.003S410.4531,348.1035,410.4424,348.0884Zm-.0352.0874v0Zm.0381.41a.448.448,0,0,1-.03-.0361.0211.0211,0,0,1,.002.0186.041.041,0,0,0,.0137.01Zm.0029-.4306.0206-.0044.0205-.002a.09.09,0,0,0-.01-.0161l-.0137-.0146c-.0019.01-.0068.0156-.0156.0151a.036.036,0,0,1-.0244-.0034.074.074,0,0,1,.0117.0185l.0059.003Zm-.0156.11.002.0191.0058.02.0059.0034.0058.003A.18.18,0,0,1,410.4326,348.2646Zm.0059-.11v.0034l.0039-.001Zm.0049.1587a.3842.3842,0,0,0,.0234.041.0239.0239,0,0,0-.0039-.0234A.0486.0486,0,0,0,410.4434,348.3135Zm.0781.3222.001-.0034a.1466.1466,0,0,1-.0586-.0307l-.01-.0035a.0872.0872,0,0,1,.01.0181l.0117.0068.0088.0074-.0049-.001.0029.001h.002a.1587.1587,0,0,0,.0342.0073Zm-.0313-.5571a.0139.0139,0,0,1-.0127.0142.0375.0375,0,0,1-.0205,0l.0059.0083.0019.01.0245.0122a.042.042,0,0,0,.0253.004c.0069-.0025.0079-.0079.0049-.0142l-.0068-.0156a.0228.0228,0,0,0-.01-.01A.0279.0279,0,0,1,410.49,348.0786Zm-.0127.001a.04.04,0,0,0-.0166.0034h.0088Zm-.0078.5459-.0029-.0015.001.001Zm.002-.2612c.01.0131.0195.0268.0312.0405a.0074.0074,0,0,0,.0039-.01l-.0058-.0161-.0117-.0156-.01-.0093-.002.0064Zm.0547-.232a.0182.0182,0,0,1-.0166.0059l-.0166-.0044.0088.0156a.1466.1466,0,0,1,.03.0054.3176.3176,0,0,1,.03.0112.0434.0434,0,0,0-.0166-.0171A.0423.0423,0,0,1,410.5264,348.1323Zm.0175-.0508-.0214-.0029a.1167.1167,0,0,0-.0225-.001l.001,0,.0107.0039.0127.0044.0127.0015Zm-.0341.3321.0224.0268.0215.0279a.0161.0161,0,0,0,0-.0162.0624.0624,0,0,0-.01-.017l-.0156-.0157-.0117-.0112Zm.0088-.0225-.001.0127a.0518.0518,0,0,0,.0146.01l.0157.0083Zm.0341-.2993a.0241.0241,0,0,1-.0136.0063l-.0166-.0024a.064.064,0,0,1,.0078.0176.0191.0191,0,0,1-.002.0176l.0137.0087a.08.08,0,0,0,.0215.01.0538.0538,0,0,0,.02.0039.01.01,0,0,0,.0108-.0083.0317.0317,0,0,0-.0049-.0161l-.01-.0146-.0146-.01A.0369.0369,0,0,1,410.5527,348.0918Zm-.0205.543-.001.0029.0118.001.0107-.001Zm.086-.5274a.3052.3052,0,0,0-.0616-.0234l-.0019.0029-.001.0034a.0425.0425,0,0,0,.0137.0088.1081.1081,0,0,0,.0195.0088l.0186.0049A.0144.0144,0,0,0,410.6182,348.1074Zm-.0547.33-.01-.0034a.0322.0322,0,0,1,.0108.018.0745.0745,0,0,1,.0185.0123.0221.0221,0,0,0,.0176.0087Zm.0293.0776a.0113.0113,0,0,0,.0049-.0117.0681.0681,0,0,0-.0069-.0171l-.0127-.0166-.0107-.0117v.0108l-.0049.0083Zm.0273-.3559-.0078-.0049-.0078-.0059a.0133.0133,0,0,1-.0127.0142.0327.0327,0,0,1-.02,0l.0058.0112c.0118.0069.0245.0142.0352.022.0117.0034.0176.0024.02-.002s.002-.0092-.0019-.0166A.0733.0733,0,0,0,410.62,348.1592Zm.0293-.0352-.01-.0063-.0117-.0054a.0125.0125,0,0,1-.0136.01.0421.0421,0,0,1-.0186-.0015l.0049.01.0039.0112.0137.0073.0156.0059.0156.0024.0078-.0049c.0039-.0039.0039-.0083,0-.0151Zm-.0127.4571.0088-.0035a.0146.0146,0,0,0-.0019-.0151.0643.0643,0,0,0-.0118-.0181.0972.0972,0,0,0-.0136-.0166l-.0118-.0112-.0078.0073c.0078.01.0147.02.0205.0283A.2236.2236,0,0,1,410.6367,348.5811Zm.0283-.0406a.3479.3479,0,0,1-.0254-.0268l-.0273-.0274-.0117-.0029.0068.0151a.0155.0155,0,0,1,0,.0161l.0147.0079.0117.0092.0137.0069A.0274.0274,0,0,0,410.665,348.5405Zm.0176-.2812a.021.021,0,0,0-.0029-.0171l-.0108-.0166-.0156-.0108a.0544.0544,0,0,1-.0117-.0122.0189.0189,0,0,1-.0117.0059.3265.3265,0,0,1,.0273.0239Zm-.039-.0586.0136.01a.11.11,0,0,0,.0391.0127.0093.0093,0,0,0,.01-.0039c.0039-.0053.0019-.0141-.0069-.0268a.0406.0406,0,0,0-.0146-.0142.0391.0391,0,0,1-.0166-.0146l-.001-.002a.02.02,0,0,1-.0137.0064.0322.0322,0,0,1-.0156-.002l.0078.0176A.0212.0212,0,0,1,410.6436,348.2007Zm0,.39.0078.0166.0068.0156c.0147.0049.0244.0049.0264,0s.0019-.0088-.001-.0157l-.0117-.0195-.0069-.0049-.0078-.0058C410.6553,348.5854,410.6514,348.59,410.6436,348.5908Zm.0566-.0044a.0954.0954,0,0,0-.0137-.019l-.0146-.0176a.0329.0329,0,0,1-.0235,0,.0561.0561,0,0,1,.0088.021l.0205.01A.1511.1511,0,0,0,410.7,348.5864Zm-.041.1714a.0818.0818,0,0,0,.0234.0039.0558.0558,0,0,0-.0137-.0239Zm.0137-.0854.0166.01.0185.0074a.0423.0423,0,0,0,.0166.0024.0126.0126,0,0,0,.0108-.0044c.0029-.0063-.002-.0176-.0147-.0342l-.0146-.01-.0127-.0127-.0127.0063-.0157-.0015.0079.0147a.0278.0278,0,0,1-.001.0151Zm-.0049-.5357.0029.0112-.0029.0123a.1218.1218,0,0,0,.0263.0161.07.07,0,0,0,.0313.0053l-.0283-.0239Zm.0049.5405a.13.13,0,0,1,0,.0474c.0195.0093.0322.0108.0371.0034.0039-.0058-.001-.0171-.0137-.0346A.1181.1181,0,0,1,410.6729,348.6772Zm.0488.05a.0158.0158,0,0,1-.0156.0156.0567.0567,0,0,1-.0235-.0039l.0108.0175.0048.003a.0562.0562,0,0,0,.0293-.0274Zm.0137-.4976-.0088-.0054-.0069-.0053a.0154.0154,0,0,1-.0136.0136.0323.0323,0,0,1-.0206,0l.0049.0083.0039.01a.1012.1012,0,0,0,.0313.0146c.0117.0039.0195.003.0224-.0024S410.7471,348.2451,410.7354,348.23Zm-.045.0391c.0039.0068.01.0131.0147.0205l.0146.021a.011.011,0,0,0,.002-.0122l-.0059-.0147-.0117-.0146-.01-.01Zm.044.38a.2039.2039,0,0,0-.0274-.0527l-.0088,0-.0078-.002.0078.0171a.0191.0191,0,0,1-.0039.0171A.1023.1023,0,0,0,410.7344,348.6484Zm.001-.458-.0127.002-.0118-.001.0049.01.003.0107.0263.0122a.0292.0292,0,0,0,.0254.0015Zm.0039.5088a.0207.0207,0,0,1-.0137.0034l-.0127-.0024a.0791.0791,0,0,1,.0088.0195l.01.0054A.1508.1508,0,0,0,410.7393,348.6992Zm.0166-.4267a.0162.0162,0,0,1-.0166.0058l-.0176-.0049.01.0171a.0242.0242,0,0,1,.002.0186l.0137.01.0195.0088.0186.0054.0117-.0039c.0029-.0049,0-.0132-.0088-.0264a.0338.0338,0,0,0-.0156-.0141.0451.0451,0,0,1-.0157-.0147Zm-.03.0468c.01.0171.0185.0362.0283.0572.0088.0009.0147-.0005.0166-.0044a.0123.0123,0,0,0-.0019-.0137.0722.0722,0,0,0-.0118-.0181l-.0136-.0166-.0127-.01Zm.0957-.03c-.0059-.01-.0137-.02-.0195-.0289l-.0235-.0273a.0181.0181,0,0,1-.0127.0049l-.0136-.0025a.0764.0764,0,0,1,.0068.0176.0158.0158,0,0,1-.002.0171l.0137.0088.0176.0088.0195.0049A.0192.0192,0,0,0,410.8213,348.29Zm-.0615.0981.0048.0117.004.0127a.0829.0829,0,0,0,.0293.0083.0134.0134,0,0,0,.0136-.0039c.002-.0044,0-.0117-.0058-.0225a.1476.1476,0,0,0-.0235-.0288l-.0019.0127A.019.019,0,0,1,410.76,348.3877Zm.0439-.0112c.0176.0053.0293.0058.0313,0a.0128.0128,0,0,0,0-.0118.03.03,0,0,0-.0079-.0136l-.01-.0132-.0078-.01a.0156.0156,0,0,1-.0166.0142.04.04,0,0,1-.0244-.0034.0556.0556,0,0,1,.0117.0185A.0854.0854,0,0,1,410.8037,348.3765Zm-.0283.2046-.0039.01.0117.002Zm.0068-.12.0059-.0083-.0039-.0107-.0059-.0112-.0058-.0088.0058.0195Zm0,.1016.0157.0044a.0123.0123,0,0,0,.0126-.0039l.001-.0083-.0088-.0186a.0238.0238,0,0,0-.0146-.0117.0677.0677,0,0,1-.002.0195A.056.056,0,0,1,410.7822,348.563Zm.0528.0141-.0059-.0073-.0068-.0063a.0158.0158,0,0,1-.0147.0146.077.077,0,0,1-.0244-.0034l.0068.0078.0059.01A.0989.0989,0,0,0,410.835,348.5771Zm0-.0532c.0039-.0063,0-.018-.0137-.0351l-.0137-.0093a.0471.0471,0,0,1-.0137-.0137l-.01.0059a.3664.3664,0,0,1,.0039.0449.22.22,0,0,0,.0293.01C410.8262,348.5283,410.833,348.5273,410.835,348.5239Zm-.0391-.06.0137.0092a.0837.0837,0,0,0,.0195.0088.0641.0641,0,0,0,.0186.0049.0122.0122,0,0,0,.0127-.0049.0117.0117,0,0,0-.002-.0132.0872.0872,0,0,0-.01-.0185l-.0146-.0171-.0127-.0112a.0139.0139,0,0,1-.0137.0092.05.05,0,0,1-.0176-.0019l.0079.0176A.0217.0217,0,0,1,410.7959,348.4644Zm.0547-.1265a.1606.1606,0,0,0-.0117-.02l-.0108-.0186c-.0049.0029-.0078.0054-.0136.0044a.049.049,0,0,1-.0147-.0015l.0059.0083.0029.0113.0195.01A.0838.0838,0,0,0,410.8506,348.3379Zm.0176.2026a.0281.0281,0,0,0-.01-.01l-.0117-.0074a.0172.0172,0,0,1-.0117.0147.0493.0493,0,0,1-.0215-.001l.0058.0088.0039.01a.1038.1038,0,0,0,.0235.0122l.0117-.0127Zm.0127-.1147a.0723.0723,0,0,0-.0147-.023l-.0215-.0195a.0144.0144,0,0,1-.0127.0083.045.045,0,0,1-.0166-.0015l.0078.0142a.0284.0284,0,0,1-.0009.0156.0483.0483,0,0,1,.0215.0142.047.047,0,0,0,.0224.0122l.01,0,.0078-.0044v-.0083Zm-.0069-.03-.0078-.0234c-.0039-.0074-.0058-.0162-.01-.0245a.0409.0409,0,0,1-.0195-.0043l.0088.0166a.0208.0208,0,0,1,.001.0185A.0921.0921,0,0,0,410.874,348.396Zm.0108.0947-.0059-.0034-.0068-.0054a.0168.0168,0,0,1-.0137.0142.0334.0334,0,0,1-.0205,0,.0442.0442,0,0,1,.01.021.1018.1018,0,0,0,.0263.0122A.1087.1087,0,0,0,410.8848,348.4907Zm.0009-.0351a.016.016,0,0,1-.0117.0009l-.0107-.0019a.06.06,0,0,1,.0088.022l.0136.0058A.08.08,0,0,0,410.8857,348.4556Z" transform="translate(-380.6187 -286.2456)"/>
      	<path d="M410.61,347.9517a.0645.0645,0,0,1-.0293-.0425.08.08,0,0,1,.01-.0518.0787.0787,0,0,1,.0332-.0293.0426.0426,0,0,1,.041.0054.0572.0572,0,0,1,.03.0425.08.08,0,0,1-.0127.0571.0611.0611,0,0,1-.0312.0249A.0517.0517,0,0,1,410.61,347.9517Zm.0117-.0435c.01.001.0146-.0005.0166-.0039s.0019-.01-.001-.0171a.0723.0723,0,0,0-.0127-.0181l-.0117-.0087A.0668.0668,0,0,0,410.6221,347.9082Zm-.0078-.0537a.1455.1455,0,0,0,.0312.0122c.01.0015.0156.0005.0195-.0039s-.0019-.0171-.0136-.0342a.0428.0428,0,0,0-.0176.0025.0344.0344,0,0,0-.0137.0117Zm.0322.0581a.0152.0152,0,0,1-.0147.0063l.0039.0025a.0229.0229,0,0,0,.02,0Zm.0273-.0439a.0136.0136,0,0,1-.0146.0087.0475.0475,0,0,1-.0166-.0009l.0088.0161a.02.02,0,0,1-.0039.0176l.0136.0087a.0674.0674,0,0,0,.0157-.0166.0455.0455,0,0,0,.0078-.0239Zm.0117.0029-.0029-.0127-.0088-.0132a.0293.0293,0,0,1,.001.02Zm.3448.25c-.0157-.0278-.0313-.0537-.0469-.0767l-.0215-.0283c.0137.0112.03.0259.0488.0435a.4348.4348,0,0,1,.044.0561.2015.2015,0,0,1,.0264.063.09.09,0,0,1-.0127.0625.0794.0794,0,0,1-.0323.0317.0965.0965,0,0,1-.04.0079.139.139,0,0,1-.042-.01.33.33,0,0,1-.041-.02.4163.4163,0,0,1-.0645-.05.5709.5709,0,0,1-.0576-.0625.4827.4827,0,0,1-.0459-.0674.2882.2882,0,0,1-.0293-.062.135.135,0,0,1,.0166-.0937l.0039-.0059a.2818.2818,0,0,0,.0323.0381c.0146.0156.0312.0307.0488.0464s.0371.0317.0576.0468.04.0288.06.0411a.4553.4553,0,0,0,.0527.0273A.1478.1478,0,0,0,411.03,348.1211Zm-.3047-.1045.0029-.0024a.01.01,0,0,0,.001-.01l-.0039-.01-.0078.0126Zm.0058-.04.0137.0014.0078-.0049c.0039-.0039.002-.01-.0029-.018a.05.05,0,0,0-.0127-.0156A.1119.1119,0,0,1,410.7314,347.9766Zm0,.05a.62.62,0,0,0,.045.0546.0221.0221,0,0,0,0-.0156l-.0069-.0122a.0385.0385,0,0,0-.0166-.0146.0687.0687,0,0,1-.0166-.0166Zm.0293-.0445a.0177.0177,0,0,1-.0136.0059l-.0137-.0015.0078.0166a.0192.0192,0,0,1-.0039.0176l.01.0063.0136.0079.0157.0063.0156.0024.01-.0039a.019.019,0,0,0,0-.0127A.5438.5438,0,0,1,410.7607,347.9824Zm.0528.0572-.002.0053a.0167.0167,0,0,1-.0136.0088.0265.0265,0,0,1-.0157-.0015.0867.0867,0,0,1,.0069.0191l.0029.0019.0137.0074.0166.0058.0127.0015.0078-.0039c.0019-.0039.001-.0122-.0059-.0249Zm.0019.083a.0421.0421,0,0,0-.01-.024.1052.1052,0,0,0-.0166-.02l-.0049.0113Zm.0547-.0118a.1007.1007,0,0,1-.0195-.018.017.017,0,0,1-.0166.0058l-.0186-.0044.0117.0162a.0312.0312,0,0,1,.002.019l.0049.0049.0068.0049a.0913.0913,0,0,0,.03.0127c.0107.0024.0166.0019.02-.0025a.0129.0129,0,0,0,0-.0122.104.104,0,0,0-.0137-.022Zm.0459,0-.0166-.0073-.0156-.0088-.0137-.01-.0137-.0108v.0078l-.0039.0074v.0019l.01.0064a.122.122,0,0,0,.0273.0136A.0307.0307,0,0,0,410.916,348.1108Zm-.0088.0874c.0127.0049.0205.0049.0235,0a.0107.0107,0,0,0,0-.0108l-.0059-.0132-.0107-.0146-.0108-.0113-.0019.0083a.0181.0181,0,0,1-.0176.0079l-.0195-.003.0058.01.0176.0141Zm0-.0546a.1142.1142,0,0,0,.0313.0136c.01.0025.0166.001.02-.0039s0-.0151-.0107-.03l-.0108-.0029-.01-.0049a.0181.0181,0,0,1-.0137.0088.0368.0368,0,0,1-.0176-.0019.0292.0292,0,0,1,.0078.019Zm.02.0673a.3188.3188,0,0,0,.0429.0235.0785.0785,0,0,0-.0136-.0166l-.0157-.0142A.0141.0141,0,0,1,410.9268,348.2109Zm.0586-.03a.0608.0608,0,0,1-.02-.0186.0175.0175,0,0,1-.0176.0059l-.0175-.0039.01.0156a.0222.0222,0,0,1,.002.019l.0137.0108a.0952.0952,0,0,0,.0293.0122c.0107.0019.0175.0014.0195-.003a.0169.0169,0,0,0,.001-.0122l-.0137-.0219Zm.0312-.0362-.01-.0058-.0078-.0079a.1442.1442,0,0,1-.02,0l-.0176-.0035a.057.057,0,0,1,.0078.0166.016.016,0,0,1-.0039.0171l.01.0059.0137.0083.0156.0059.0156.0029a.01.01,0,0,0,.01-.0044l.0009-.0083A.0569.0569,0,0,0,411.0166,348.145Zm.002.0733-.003.0078a.0177.0177,0,0,1-.0166.0083.0665.0665,0,0,1-.02-.003l.0039.0035.002.0039a.0483.0483,0,0,0,.0449-.0088Zm.0146-.0913-.0244.0048.0156.0064.0137.0039Zm.01.0527-.002.0054a.0219.0219,0,0,1-.0137.0087.0234.0234,0,0,1-.0166-.0019l.0079.02.0078.0054.01.0049a.0756.0756,0,0,0,.0118-.0391Zm-.001-.0264-.0078-.0014.0058.0092.002.0118.0049.0024Z" transform="translate(-380.6187 -286.2456)"/>
      	<path d="M411.1553,347.7246l-.0059-.01a.0739.0739,0,0,1,.0225.0391.06.06,0,0,1-.0088.0459.3949.3949,0,0,1,.03.0537.2353.2353,0,0,1,.0195.0591.1867.1867,0,0,1,.0049.06.1343.1343,0,0,1-.0215.0581.1157.1157,0,0,1-.04.0425.1042.1042,0,0,1-.05.0122.1636.1636,0,0,1-.0517-.01.3113.3113,0,0,1-.0508-.0244.5277.5277,0,0,1-.0928-.0747.9359.9359,0,0,1-.083-.0958.9782.9782,0,0,1-.0693-.1049.84.84,0,0,1-.0469-.0987.1688.1688,0,0,1-.0019-.0547.1708.1708,0,0,1,.0195-.0507c.0078.0092.0176.0229.0293.04s.0254.0352.041.0547c.0176.0205.0342.041.0537.0635s.0391.0429.06.0635.041.0405.0615.0581a.6034.6034,0,0,0,.0625.0454.1959.1959,0,0,0,.0752.03.0671.0671,0,0,0,.0606-.019.2075.2075,0,0,0-.0157-.043.3563.3563,0,0,0-.02-.041.0811.0811,0,0,1-.0576.0054.1816.1816,0,0,1-.0547-.0234.2874.2874,0,0,1-.0342-.025.2427.2427,0,0,1-.0361-.0356.1338.1338,0,0,1-.0234-.04.04.04,0,0,1,.0019-.0381.0365.0365,0,0,1,.0225-.0181.0778.0778,0,0,1,.03,0,.1377.1377,0,0,1,.0292.0107l.0235.0132a.3143.3143,0,0,1,.0664.0528c.0176.0195.0361.041.0527.0625a.052.052,0,0,0,.0078-.0323A.0573.0573,0,0,0,411.1553,347.7246Zm-.4375-.0386.0117.0205a.191.191,0,0,0,.0156.023l.0039-.0044a.01.01,0,0,0,0-.0107l-.0078-.0147a.0457.0457,0,0,0-.01-.0132l-.01-.0093-.0029.0064Zm.0058-.0151.0118.0068.0156.0064.0136.0029c.0059,0,.0079-.0019.01-.0044l.002-.0054-.0157-.0288-.0078-.0048-.0068-.0054-.0029.0054a.0171.0171,0,0,1-.02.01l-.0039.0108.001.0053Zm.0049-.0288.0049-.0029.002-.0093-.004-.0093Zm.0108-.042-.0039-.0107-.004-.0118.002.021Zm-.002.01a.0426.0426,0,0,1,.01.0209l.0078.0049-.0108-.0254Zm.0449.08a.017.017,0,0,1-.0166.0059l-.0166-.0034.01.0161a.0218.0218,0,0,1,0,.019l.0058.0044.0069.0039a.1087.1087,0,0,0,.0283.0132.0216.0216,0,0,0,.0234-.001l-.0175-.0244-.0166-.0264Zm-.0312.0479c.0058.0088.0136.018.02.0273l.0215.03.0059-.0039a.0178.0178,0,0,0-.002-.0151.0846.0846,0,0,0-.0107-.0176l-.0147-.0171-.0117-.01Zm.08.019a.0234.0234,0,0,1-.0176.0059l-.0176-.0049a.0436.0436,0,0,1,.0117.0181l.0039.0019.01.0073.0049.0054.0058.0034a.0507.0507,0,0,0,.0166.0059.02.02,0,0,0,.0137-.0034Zm-.002.082.01-.0048a.0155.0155,0,0,0,0-.0113l-.0088-.0161-.0117-.0146-.0088-.0093a.0265.0265,0,0,1-.0039.0146l-.0069.0059Zm.0078.0093c.0078.01.0156.02.0235.0279s.0175.018.0253.0273v-.002c.0039-.0039.003-.0087,0-.0156a.0671.0671,0,0,0-.0117-.0176l-.0136-.017-.0118-.0108A.0152.0152,0,0,1,410.8369,347.8491Zm.0127-.0093.0117.0059a.1333.1333,0,0,1,.0186.0142.0625.0625,0,0,0,.0195.0053c.0059.0015.01,0,.0117-.0034a.02.02,0,0,0-.0019-.0176l-.02-.0185a.134.134,0,0,1-.0195-.02.0169.0169,0,0,1-.0137.0053l-.0136-.0014.0068.0151A.0276.0276,0,0,1,410.85,347.84Zm.0733.0171-.002.01a.0219.0219,0,0,1-.0137.0083.0366.0366,0,0,1-.0166-.001.0518.0518,0,0,1,.0088.02.1218.1218,0,0,0,.0332.0147c.01.0014.0176,0,.0195-.0044a.015.015,0,0,0,.001-.0117.17.17,0,0,0-.0136-.023Zm.0048.09a.0357.0357,0,0,0-.0088-.0254.1247.1247,0,0,0-.0205-.02l-.0029.0063-.0019.0044Zm.01.0068.0078.0059.0147.0078.0166.0068.0146.002.01-.0039a.0206.0206,0,0,0,0-.0152.0637.0637,0,0,0-.0117-.0171l-.0147-.017-.0107-.0113a.018.018,0,0,1-.0147.01.0553.0553,0,0,1-.0185-.0025.06.06,0,0,1,.0078.0166A.02.02,0,0,1,410.9375,347.9536Zm.1924-.14a.5669.5669,0,0,0-.0547-.0674.3024.3024,0,0,0-.0654-.0547.1586.1586,0,0,0-.0323-.0142c-.0117-.0034-.0195-.0009-.0234.0054s0,.0186.0088.0352a.2775.2775,0,0,0,.0752.0761.2019.2019,0,0,0,.0439.0186A.0706.0706,0,0,0,411.13,347.8135Zm-.1035.1162-.0127-.0073-.0117-.0074a.2273.2273,0,0,1-.0206-.0131.1812.1812,0,0,1-.0195-.0132.0243.0243,0,0,1,.002.0215l.0078.0034.0058.0039.0049.0039.0108.0073a.0413.0413,0,0,0,.0175.0064c.0079.0024.0118.0009.0137-.0025Zm-.041.0635a.1332.1332,0,0,0,.0214.0151l.02.0127c.0078.0019.0136,0,.0156-.0034s.0019-.01-.002-.0171a.0625.0625,0,0,0-.01-.0176l-.0088-.0049-.0078-.0063-.002.0063a.0168.0168,0,0,1-.0146.0078.0316.0316,0,0,1-.0166-.0014Zm.0527-.06-.002.0054a.0272.0272,0,0,1-.0136.0073.0424.0424,0,0,1-.0176-.002.0386.0386,0,0,1,.0088.0205.1226.1226,0,0,0,.0342.0147c.01.0015.0175.0005.02-.0039s-.002-.0176-.0157-.0361Zm.0244.1025-.0127-.01-.0059.0039.0118.0044.01.0039Zm-.001-.0053a.0789.0789,0,0,0,.0352.0136c.01.002.0156,0,.0176-.0029a.0191.0191,0,0,0,0-.0146.0737.0737,0,0,0-.01-.0166.0944.0944,0,0,0-.0147-.0171l-.0127-.0118a.0165.0165,0,0,1-.0136.01.0461.0461,0,0,1-.0176-.0024l.0078.0171a.0187.0187,0,0,1-.0019.0175l.0039.0039Zm.0176-.0508.0107.0054a.1025.1025,0,0,1,.0186.0151.0664.0664,0,0,0,.0215.0044l.0078-.0029a.0173.0173,0,0,0,.001-.0123l-.0069-.0136-.0117-.0157-.0117-.0117h-.0146l-.0108.0015-.0117-.0015.0058.0152A.043.043,0,0,1,411.0791,347.98Zm.0371-.0318a.1137.1137,0,0,0,.0293.0122c.01.003.0176.002.0195-.0024.0039-.0049.002-.0137-.0058-.0264a.0636.0636,0,0,1-.0215.01A.112.112,0,0,1,411.1162,347.9482Zm.0469.0581-.0049-.0073-.0068-.0058a.0194.0194,0,0,1,0,.0146.0283.0283,0,0,1-.0137.0083.0351.0351,0,0,1-.0186-.0019.0407.0407,0,0,1,.0079.02l.0058.0034a.0655.0655,0,0,0,.0283-.0259ZM411.168,348a.11.11,0,0,0,.0107-.043l-.0019.0078a.0192.0192,0,0,1-.0157.0083.0833.0833,0,0,1-.0215-.0039.0473.0473,0,0,1,.01.0171l.0108.0059Zm.0068-.085-.0039.0059.0059,0Zm.0029.0181-.0068-.0024.0078.0185Z" transform="translate(-380.6187 -286.2456)"/>
      	<path d="M411.2676,347.5244l-.0137-.0122c-.0176-.0146-.0342-.03-.0518-.0454l-.0488-.0459c-.0156-.0142-.0283-.0278-.04-.0405l-.03-.0318a.1148.1148,0,0,1,.0313-.0322.08.08,0,0,1,.039-.0185l.0528.0351c.0283.0176.06.0381.0957.062s.07.05.1074.0767c.0351.0278.07.0561.1025.0864a.5789.5789,0,0,1,.0811.0913.2947.2947,0,0,1,.041.0923.1179.1179,0,0,1-.0176.0859.1023.1023,0,0,1-.0586.0494.0914.0914,0,0,1-.0771-.0132.1425.1425,0,0,1-.0342-.03.1655.1655,0,0,1-.0234-.0391.0918.0918,0,0,1-.0069-.0429.0794.0794,0,0,1,.0137-.043l.0039-.0064a.0781.0781,0,0,0-.01.0381.1216.1216,0,0,0,.0069.0371.181.181,0,0,0,.0195.0332.19.19,0,0,0,.0293.0254.1256.1256,0,0,0,.0234.01.1534.1534,0,0,0-.0136-.0591.3372.3372,0,0,0-.0372-.0649.59.59,0,0,0-.0546-.0674.8439.8439,0,0,0-.0606-.0655l-.0156-.017a.387.387,0,0,1,.0293.0449.3054.3054,0,0,1,.0215.0483.1971.1971,0,0,1,.0058.0474.1018.1018,0,0,1-.0136.0444.0812.0812,0,0,1-.0332.0313.0785.0785,0,0,1-.0391.0078.1455.1455,0,0,1-.042-.01.2529.2529,0,0,1-.04-.02.3449.3449,0,0,1-.0655-.05.6117.6117,0,0,1-.1045-.13.28.28,0,0,1-.0273-.0625.1239.1239,0,0,1,.0156-.0932l.0039-.0059a.2233.2233,0,0,0,.0323.0381.5631.5631,0,0,0,.0488.0464c.0185.0156.0381.0317.0576.0468s.041.0288.06.0411a.445.445,0,0,0,.0508.0273.1582.1582,0,0,0,.043.0127Zm-.2471.0083.0039-.0019a.0129.0129,0,0,0,.001-.0108l-.0039-.01-.0088.0131Zm.0068.0108a.5593.5593,0,0,0,.0459.0546.0217.0217,0,0,0-.0009-.0156l-.0069-.0122a.0354.0354,0,0,0-.0156-.0146.0589.0589,0,0,1-.0176-.0166Zm.001-.05.0137.0014.0078-.0049c.002-.0039.002-.01-.0039-.018a.0454.0454,0,0,0-.0117-.0161A.1176.1176,0,0,1,411.0283,347.4932Zm.0283.0058a.0157.0157,0,0,1-.0127.0059l-.0156-.002a.11.11,0,0,1,.0088.0166.0186.0186,0,0,1-.0039.0176l.0088.0068.0146.0074.0166.0068.0137.0024a.0089.0089,0,0,0,.01-.0043.0166.0166,0,0,0,.001-.0123A.5438.5438,0,0,1,411.0566,347.499Zm.0538.0572-.002.0053a.0232.0232,0,0,1-.0137.0088.0506.0506,0,0,1-.0176-.0015.0531.0531,0,0,1,.0079.0186l.0029.002.0146.0078.0157.0058.0127.001.0078-.0034c.0029-.0039.0009-.0122-.0049-.0249Zm.0019.083a.0582.0582,0,0,0-.01-.024.1553.1553,0,0,0-.0175-.0205l-.0039.0113Zm-.0156-.293-.0108.0015v.0024l.0176.0107Zm.0195.0225.0254.0161.0234.0166a.0131.0131,0,0,0,.0118-.003.014.014,0,0,0-.001-.0136l-.0069-.0142-.0068-.0078-.0088-.0064a.0516.0516,0,0,1-.0176-.0166.0162.0162,0,0,1-.0136.0059.0465.0465,0,0,1-.0147-.001l.0059.0113Zm.0508.2587a.0638.0638,0,0,1-.0195-.018.02.02,0,0,1-.0176.0053l-.0176-.0039a.0562.0562,0,0,1,.01.0162.0218.0218,0,0,1,.0019.019l.0059.0044.0078.0054a.0868.0868,0,0,0,.0293.0127c.0117.0024.0176.0019.02-.0025a.016.016,0,0,0,.001-.0122l-.0127-.022Zm-.0469-.2915.0078-.0044.002-.0014Zm.0791.0049a.1892.1892,0,0,1-.0205-.0185l-.0215-.02-.0058.0025-.0118.0146.001.0083-.0029.0078v.002l.0068.0059.0147.0078.0166.0068.0146.0024c.0059,0,.01-.0019.0108-.0044l.0009-.0078Zm.0127.2866-.0156-.0073-.0156-.0093-.0147-.0092-.0146-.0108v.0073l-.002.0079-.0019.0014.01.0069a.1706.1706,0,0,0,.0293.0136A.0285.0285,0,0,0,411.2119,347.6274Zm-.01.087c.0137.0053.0215.0048.0254,0a.0193.0193,0,0,0,0-.0108l-.0078-.0137a.0615.0615,0,0,0-.01-.0141l-.0108-.0112-.0019.0083a.0176.0176,0,0,1-.0166.0078.1088.1088,0,0,1-.0205-.0035l.0068.0108.0176.0141Zm.0167-.2754a.034.034,0,0,0-.0049-.0176l-.01-.0137-.0078-.0044-.0078-.0063-.002.0053-.0078.0079Zm.0107-.0733a.0147.0147,0,0,1-.0107-.0058l-.0049-.0035-.002.0059a.0219.0219,0,0,1-.0146.0078.0344.0344,0,0,1-.0176-.001l.0068.01.002.0107a.1062.1062,0,0,0,.0332.0137c.0107.0024.0176.0024.0205-.0024a.0186.0186,0,0,0,0-.0127A.1317.1317,0,0,0,411.23,347.3657Zm-.0264.294a.142.142,0,0,0,.03.0141c.01.0025.0176.001.02-.0039s-.001-.0151-.0107-.03l-.0108-.0029-.01-.0049a.0178.0178,0,0,1-.0147.0083.028.028,0,0,1-.0156-.0014.031.031,0,0,1,.0058.0185Zm.0479-.1963c.0215.0093.0351.01.039.0039s0-.0181-.0127-.0347l-.0146-.01-.0137-.0132a.0125.0125,0,0,1-.0117.0068.0413.0413,0,0,1-.0156-.0019.0909.0909,0,0,1,.0068.0156.0261.0261,0,0,1-.001.0151Zm-.0293.2641c.0156.0093.03.0171.0439.0235a.06.06,0,0,0-.0146-.0166l-.0147-.0142A.0156.0156,0,0,1,411.2217,347.7275Zm.06-.03a.0708.0708,0,0,1-.0215-.0186.0152.0152,0,0,1-.0175.0054l-.0176-.0034.0107.0156a.0327.0327,0,0,1,.003.019l.0127.0108a.1009.1009,0,0,0,.03.0122c.01.0019.0157.0014.02-.003.0019-.0029.0009-.0068,0-.0122a.0833.0833,0,0,0-.0137-.0219Zm-.0234-.3077-.0068-.0044a.0171.0171,0,0,1,0,.02l.0107.0107a.0905.0905,0,0,0,.0215.01.0926.0926,0,0,0,.0234.0049Zm.0547.271-.01-.0058-.0088-.0074a.13.13,0,0,1-.0185,0l-.02-.0035.01.0166a.02.02,0,0,1-.0039.0166l.0078.0064.0156.0078a.0575.0575,0,0,0,.0157.0064l.0146.0029a.0085.0085,0,0,0,.0088-.0049l.0019-.0078A.056.056,0,0,0,411.3135,347.6611Zm0-.1465c.01.0025.0156.0015.0176-.0019a.0182.0182,0,0,0-.001-.0171.07.07,0,0,0-.0108-.0176l-.0078-.0049-.0078-.0063-.0039.0063a.0146.0146,0,0,1-.0127.0083.0225.0225,0,0,1-.0156-.0019Zm.001.22-.003.0078a.02.02,0,0,1-.0156.0083.078.078,0,0,1-.0215-.0034l.0039.0039.002.0039a.0466.0466,0,0,0,.0449-.0088Zm.0029-.2959a.0381.0381,0,0,1-.0235,0l.0059.01.0029.0108.0118.0073.0156.0058.0166.0025a.0093.0093,0,0,0,.01-.0054Zm.0117.2046a.1042.1042,0,0,1-.0244.0043l.0146.0069.0157.0039Zm.01.0527-.002.0054a.0219.0219,0,0,1-.0137.0087.0364.0364,0,0,1-.0175-.0019.03.03,0,0,1,.0078.019l.01.0054.01.0054a.0979.0979,0,0,0,.0108-.0391Zm-.0127-.17.0283.0254.0254.0263a.0225.0225,0,0,0-.002-.019.0612.0612,0,0,0-.0107-.0156l-.0147-.01a.0451.0451,0,0,1-.0127-.0122A.02.02,0,0,1,411.3262,347.5264Zm.0117.1435-.0088-.0019.0059.01.0039.0113.0039.0024Zm.0137-.144a.1378.1378,0,0,0,.0322.0141c.0117.003.0185.002.0215-.0024.0039-.0059-.001-.0171-.0137-.0352l-.0146-.01-.0127-.0127a.0164.0164,0,0,1-.0127.0063.0494.0494,0,0,1-.0166-.0019.0578.0578,0,0,1,.0088.0171.0227.0227,0,0,1-.003.0175Zm.081.022-.0078-.0049-.0078-.0064-.002.0069a.0152.0152,0,0,1-.0127.0083.0491.0491,0,0,1-.0185-.001l.0058.0083.002.0093.0039.0024a.0917.0917,0,0,0,.0313.0137c.01.0024.0166.0014.0195-.003C411.45,347.5752,411.4463,347.564,411.4326,347.5479Zm-.0449.0385.0176.0186.0156.018a.0389.0389,0,0,0-.0088-.0258.1631.1631,0,0,0-.0205-.021l-.002.0078Zm.0234-.0688a.0225.0225,0,0,1,.0059.0127.0736.0736,0,0,0,.0215.0093Zm.043.0732a.02.02,0,0,1-.0176.0059l-.0166-.0044.01.0156a.023.023,0,0,1,.001.02l.0127.0083a.1346.1346,0,0,0,.03.0137c.0118.0039.0186.0025.0215-.0019s0-.0132-.0078-.0259a.0513.0513,0,0,0-.0156-.0156A.0494.0494,0,0,1,411.4541,347.5908Zm.0147.0991a.0305.0305,0,0,0-.002-.0156.0533.0533,0,0,0-.0107-.0161l-.0137-.0151-.0127-.0113Zm.0419-.0791c-.0175-.0175-.0351-.0361-.0566-.0556l-.0039-.001.0078.0171a.02.02,0,0,1-.0019.0181l.01.0068.0215.0107A.0639.0639,0,0,0,411.5107,347.6108Zm-.0078.0835c.0166.0059.0274.0069.0313.001a.0124.0124,0,0,0,0-.0117l-.0078-.0142-.0108-.0132-.0088-.0092-.0029.0073a.0164.0164,0,0,1-.0166.0078.0483.0483,0,0,1-.0195-.0044.0465.0465,0,0,1,.0107.0186l.0059.0034A.1081.1081,0,0,1,411.5029,347.6943Zm-.0273.0069a.2318.2318,0,0,1,.0156.0371c.01.0019.0156.001.0186-.0034a.0193.0193,0,0,0-.001-.0122l-.0078-.0152-.0108-.0151-.0107-.01a.0156.0156,0,0,1-.002.0147Zm.0312.09.0118.0064.0156.0048.0137.0025a.01.01,0,0,0,.01-.0044.0156.0156,0,0,0-.001-.0147l-.0107-.0175a.0813.0813,0,0,0-.0156-.0166l-.01-.0108a.02.02,0,0,1-.0117.0083l-.0117.001A.3449.3449,0,0,1,411.5068,347.791Zm.0411-.1362-.0137-.0171-.0156-.0166a.0308.0308,0,0,1-.02,0l.0039.0083.002.01.01.0058A.1005.1005,0,0,0,411.5479,347.6548Zm-.043.1875.0166.0034a.0115.0115,0,0,0,.0107-.0054c.002-.0029.002-.0078-.0019-.0151a.0482.0482,0,0,0-.02-.0239l-.0039-.002A.107.107,0,0,1,411.5049,347.8423Zm.0156-.1045.0059.0034.0058.0034a.0877.0877,0,0,1,.0176.0142c.0186.0063.0283.0063.0313.0015a.0137.0137,0,0,0,0-.0123l-.0079-.0161-.0146-.0171-.0127-.0122-.002-.0009a.0231.0231,0,0,1-.0136.0083.0563.0563,0,0,1-.0176-.0025.0351.0351,0,0,1,.0078.0152A.02.02,0,0,1,411.5205,347.7378Zm.0664-.0186a.1453.1453,0,0,0-.0137-.0263c-.0058-.0078-.0107-.0176-.0166-.0269a.0217.0217,0,0,1-.0127,0l-.01-.0034.0117.0166a.03.03,0,0,1,0,.0186l.0059.0048.0058.004.0147.0078Zm-.0166.0816-.0029.0063a.0175.0175,0,0,1-.0137.0078.0121.0121,0,1,0-.0078.02l.0137.0073a.0949.0949,0,0,0,.0263-.0288Zm-.0185.0454-.0059-.0044-.002.0044-.0019.0034Zm.0459-.09-.003-.0039a.0212.0212,0,0,1-.0019.0137.0146.0146,0,0,1-.0137.0078.0353.0353,0,0,1-.0176-.0005.0591.0591,0,0,1,.0088.0205.0673.0673,0,0,0,.02.0088A.0873.0873,0,0,0,411.5977,347.7563Zm-.0069-.0253-.0088-.0035a.0486.0486,0,0,1,.0108.0186l.0029.0019Z" transform="translate(-380.6187 -286.2456)"/>
      	<path d="M411.665,347.0767c-.0058-.0127-.0136-.0249-.0205-.0367s-.0166-.0244-.0244-.0356l-.0215-.0283c.0137.0112.03.0259.0489.0434a.3694.3694,0,0,1,.0439.0557.2065.2065,0,0,1,.0264.063.0894.0894,0,0,1-.0127.0625.07.07,0,0,1-.0567.0361.124.124,0,0,1-.0732-.0161.1414.1414,0,0,1,.0371.0747.11.11,0,0,1-.0156.082.0987.0987,0,0,1-.043.04.1437.1437,0,0,1-.0537.0117.2184.2184,0,0,1-.0576-.0088.2783.2783,0,0,1-.0518-.0239.32.32,0,0,1-.0576-.0449.2732.2732,0,0,1-.0469-.0567.2487.2487,0,0,1-.0322-.0654.21.21,0,0,1-.0127-.0733.1351.1351,0,0,1,.0186-.0673.0965.0965,0,0,1,.0615-.0454.1371.1371,0,0,1,.0879.01.1908.1908,0,0,1-.0176-.0361.2489.2489,0,0,1-.0137-.0366.1016.1016,0,0,1,0-.0484.1191.1191,0,0,1,.0157-.0454l.0058-.0063a.4371.4371,0,0,0,.082.0913.9278.9278,0,0,0,.1016.0713c.0137.0087.0274.0161.0391.0224A.0987.0987,0,0,0,411.665,347.0767Zm-.3906.0776.0176.01.02.0068a.1766.1766,0,0,1-.0244-.0557l-.0088.0025A.2462.2462,0,0,0,411.2744,347.1543Zm0,.0054a.1525.1525,0,0,0,.0127.0527c.0108.0029.0186.0029.0215-.0024a.017.017,0,0,0-.002-.0162l-.0107-.019-.0117-.0063Zm.1826-.0362c-.0088-.01-.0166-.021-.0244-.0312s-.0146-.021-.0215-.0327a.2306.2306,0,0,0-.0332-.0049.1675.1675,0,0,0-.0351.0029.106.106,0,0,0-.0323.0137.073.073,0,0,0-.0244.0244.6438.6438,0,0,0,.0586.07.4633.4633,0,0,0,.0811.0645.2557.2557,0,0,0,.08.0322.1073.1073,0,0,0,.0771-.0117l-.0117-.0235a.0432.0432,0,0,0-.0137-.0161A.3925.3925,0,0,1,411.457,347.1235Zm-.1543.1216.0108.0059.0136.0053.0137.003.0078-.0044a.0115.0115,0,0,0,.002-.0112l-.0068-.0137-.0108-.0117-.0117-.0088-.002.0068a.025.025,0,0,1-.0117.0088.0236.0236,0,0,1-.0156-.001Zm.01-.063.0049.0083.0039.0122.01.0059.0107.0044-.0127-.0151-.0107-.0147Zm.0361.127a.107.107,0,0,0,.03.0137c.01.0024.0156.0019.0186-.003s0-.0176-.0127-.0337l-.0147-.0107a.03.03,0,0,1-.0117-.0117.0227.0227,0,0,1-.0176.0053l-.0176-.0048.0079.0141a.0387.0387,0,0,1,.0048.0166Zm.0752-.0357-.0127-.0053-.0136-.0083a.2244.2244,0,0,1-.0411-.0323l-.0029,0a.0289.0289,0,0,1,.0069.0156.0245.0245,0,0,1-.001.0185l.0078.0054.0146.0083.0157.0063.0156.003.01-.0044Zm.002.0977a.0159.0159,0,0,0,.0127-.0039.0106.0106,0,0,0-.001-.0117l-.0068-.0142-.0118-.0137-.01-.0088-.002.0069a.0157.0157,0,0,1-.0156.0088.0723.0723,0,0,1-.0215-.0039l.0059.0063.0166.0137.0166.0112.0088.0054Zm-.0459-.3931.0068.0113.0078.0107a.1171.1171,0,0,0,.0225.0078c.0088.002.0137.0015.0176-.0034.0019-.0034.0009-.0083-.002-.0147s-.0058-.0117-.0107-.018l-.0147-.0176-.0117-.01a.0978.0978,0,0,1-.0117.0284Zm.0156-.0356.0127.0063a.0879.0879,0,0,1,.02.0166.233.233,0,0,1-.0254-.0522l-.0019,0-.003.0146Zm.0391.3364-.002.0068a.0181.0181,0,0,1-.0137.0083.042.042,0,0,1-.0175-.0014l.0058.0093.003.0092.0107.0059.0156.0073a.0478.0478,0,0,0,.0166.0044.0117.0117,0,0,0,.0108-.0049.014.014,0,0,0-.001-.0136l-.0068-.0127Zm-.0117-.2388.0117.0064.0156.0049a.0284.0284,0,0,0,.0156.0029l.0088-.0039a.0184.0184,0,0,0-.001-.0186l-.0107-.0166-.0088-.0044-.0078-.0058-.002.0058a.0163.0163,0,0,1-.0127.0088.0659.0659,0,0,1-.0175-.0014.0322.0322,0,0,1,.0068.02Zm.04.34.01.0044.0156.0063.0156.003.0088-.0035c.0019-.0029.0019-.0063,0-.0127l-.0068-.0136a.0549.0549,0,0,0-.0176-.0152.0684.0684,0,0,1-.0166-.0151.0162.0162,0,0,1-.0176.0054l-.0176-.0049.0108.0166a.0216.0216,0,0,1,.0009.019l.0079.0054Zm-.0039.0058a.0418.0418,0,0,0-.0127-.0112l-.0039.0039Zm.0029-.3007a.2824.2824,0,0,0,.0332.03c.0156.0059.0235.0064.0274,0a.0171.0171,0,0,0-.001-.0151.06.06,0,0,0-.0108-.0195l-.0156-.01-.0117-.0122a.0217.0217,0,0,1-.0137.0059.0348.0348,0,0,1-.0156-.0015A.0379.0379,0,0,1,411.4619,347.085Zm.0117.2461.01.0063a.1314.1314,0,0,0,.0312.0151c.0118.003.02.0025.0235-.0034a.01.01,0,0,0,0-.01l-.0059-.0118-.01-.0117-.0079-.0063a.0529.0529,0,0,1-.0175-.0166.0159.0159,0,0,1-.0137.0058.04.04,0,0,1-.0156-.0014.0611.0611,0,0,1,.0078.0161A.0234.0234,0,0,1,411.4736,347.3311Zm.0118-.2745.0078.0059.0136.0078.0166.0068a.049.049,0,0,0,.0147.0015.0107.0107,0,0,0,.01-.0044l.0019-.0093-.07-.0439.0068.0171A.0242.0242,0,0,1,411.4854,347.0566Zm.0146.2359.0068.0044.0137.0083.0176.0063.0156.0025.0088-.0049a.0156.0156,0,0,0-.001-.0147.0575.0575,0,0,0-.0078-.0141.0631.0631,0,0,1-.0254.0093Zm.0342-.1782-.001.0068-.01.0078-.0127,0,.0225.0181a.1911.1911,0,0,0,.0225.0156c.0048,0,.0078,0,.0088-.0025.0029-.0034.0019-.0083-.001-.0146l-.0069-.0132-.0058-.0073-.0069-.0044Zm.0351.2519-.0039-.0058-.0078-.0049-.0078-.0064-.0019.0069a.0315.0315,0,0,1-.0147.0078.0356.0356,0,0,1-.0176-.0015l.0049.0093.0039.01.0137.0079A.0837.0837,0,0,0,411.5693,347.3662Zm-.01-.292-.002.0059a.0162.0162,0,0,1-.0137.0093.0624.0624,0,0,1-.0166-.002l.0059.01.001.0112.0117.0059.0176.0063a.03.03,0,0,0,.0156.0029l.01-.0034.0019-.0088-.0068-.0136-.0078-.0132Zm.0312.2471-.0078-.0064-.0088-.0068-.0019.0068a.0183.0183,0,0,1-.0137.0083.0123.0123,0,1,0-.0088.02.112.112,0,0,0,.0273.0122A.09.09,0,0,0,411.5908,347.3213Zm.003-.01a.1642.1642,0,0,0-.001-.0312.0194.0194,0,0,1-.0127.0034l-.0147-.0029a.0645.0645,0,0,1,.0088.0219l.0088.0049Zm-.0069-.0469-.0039-.0107-.0068.01-.0088.0078.0117,0,.0078-.0039Zm-.0137-.0976.01.0068a.1153.1153,0,0,0,.0332.0147c.0117.0029.0186.0019.0215-.003s.0019-.0136-.0059-.0263l-.0078-.0088-.01-.0059a.08.08,0,0,1-.0176-.0166.0151.0151,0,0,1-.0137.0059l-.0146-.0015a.0406.0406,0,0,1,.0078.0166A.0242.0242,0,0,1,411.5732,347.167Zm.0254-.04.0088.0063.0156.0083.0166.0064.0147.0014a.0081.0081,0,0,0,.0088-.0044.0157.0157,0,0,0,0-.0132.1038.1038,0,0,0-.01-.0161.072.072,0,0,0-.0137-.0156l-.01-.0112h-.01a.0137.0137,0,0,1-.0127.0049l-.0146-.0025a.0564.0564,0,0,1,.0078.0171A.0211.0211,0,0,1,411.5986,347.1265Zm.07-.0435a.1786.1786,0,0,1-.0312.0059l.01.0083.0078.0049a.0333.0333,0,0,0,.0224.0053Zm.0059.0615-.0019.0059a.02.02,0,0,1-.0137.0083.0422.0422,0,0,1-.0176-.0015.0376.0376,0,0,1,.0078.0215l.0156.0068.0088-.0107a.0613.0613,0,0,0,.0088-.0249Zm-.0156.0474-.01-.0073-.0019.0068-.0059.0059A.0292.0292,0,0,0,411.6592,347.1919Zm.0254-.05-.0039-.023h-.0069l-.0078-.0019a.0494.0494,0,0,1,.0088.02Z" transform="translate(-380.6187 -286.2456)"/>
    </g>
    <g>
      	<path d="M516.4609,398.0557a.6461.6461,0,0,1,.0938.0761.5577.5577,0,0,1,.0771.0967.4323.4323,0,0,1,.05.1084.2491.2491,0,0,1,.0137.1123.1521.1521,0,0,1-.0234.0625.1294.1294,0,0,1-.0576.05.0854.0854,0,0,1-.0752-.0039l.0088.0029h.0078a.2158.2158,0,0,0-.0059-.1044.5632.5632,0,0,0-.1172-.2178.3466.3466,0,0,0-.081-.0733.1957.1957,0,0,0-.0811-.03.1294.1294,0,0,0-.0869.0234.3092.3092,0,0,0-.01.1.4636.4636,0,0,0,.0166.12.4519.4519,0,0,0,.044.1133.2085.2085,0,0,0,.0713.0791.1929.1929,0,0,0,.0381.0186.1522.1522,0,0,0,.0429.0049l-.0058.0019a.0708.0708,0,0,0-.0079.0391.1172.1172,0,0,0,.0108.0371.09.09,0,0,0,.0244.0312.1148.1148,0,0,0,.0322.0215.13.13,0,0,0,.001-.0547.1619.1619,0,0,0-.0166-.0508.3106.3106,0,0,0-.0264-.0468l-.0312-.044c-.0225-.03-.0459-.0615-.07-.0908a.5517.5517,0,0,1-.0625-.0977c-.0059-.0117-.0108-.0234-.0156-.0351-.004-.0137-.0059-.0274-.0088-.041a.1022.1022,0,0,1,.0048-.0391.0617.0617,0,0,1,.0186-.0351.0436.0436,0,0,0-.002.0312.0825.0825,0,0,0,.0166.0313.2254.2254,0,0,0,.0235.0273.28.28,0,0,0,.0234.0244q.0205.0176.041.0381c.0157.0127.0293.0254.043.0371.0313.0313.0625.0606.0938.0938a.3564.3564,0,0,1,.0732.1074.1648.1648,0,0,1,.0146.0683.1078.1078,0,0,1-.0185.0655.0933.0933,0,0,1-.0469.039.0731.0731,0,0,1-.0635-.0049.113.113,0,0,1-.0351-.0273.1014.1014,0,0,1-.0244-.0381.0988.0988,0,0,1-.0078-.0439.0741.0741,0,0,1,.0166-.041.1864.1864,0,0,1-.0938.0117.1993.1993,0,0,1-.084-.0313.278.278,0,0,1-.0918-.0957.3465.3465,0,0,1-.041-.123.3842.3842,0,0,1,.0547-.2559.2555.2555,0,0,1,.0693-.0742.2188.2188,0,0,1,.0821-.0293.2728.2728,0,0,1,.0908.0107A.3559.3559,0,0,1,516.4609,398.0557Zm-.331.2226-.0029.0137a.0165.0165,0,0,1-.0176.0088l-.01-.002v.0059l.0049.0137a.135.135,0,0,0,.0381.0175.0938.0938,0,0,1-.001-.0234l-.001-.0215Zm-.03.0567a.26.26,0,0,0,.0039.0371c.0147.0068.0235.0068.0274.0009s.0019-.0146-.0049-.0273a.0235.0235,0,0,0-.01-.0117l-.0117-.0078Zm.001-.0469c.0088.0029.0146.0029.0166-.001a.0153.0153,0,0,0-.001-.0156.0491.0491,0,0,0-.0107-.0176l-.002.0156Zm.0459-.0518a.0594.0594,0,0,0-.0254-.0351.0732.0732,0,0,0-.0078.0185l-.0049.0205.0195.0069c.0078.0029.0147.0009.0166-.003Zm.0058.1573-.0068-.0059-.0049-.0059-.0136.0049a.0465.0465,0,0,1-.0166-.0019l.0078.0166a.0211.0211,0,0,1-.002.0185.0848.0848,0,0,0,.0244.0147.068.068,0,0,0,.0274.0078A.2776.2776,0,0,1,516.1523,398.3936Zm-.0371.0244a.2314.2314,0,0,0,.0118.0332.1516.1516,0,0,0,.0156.0312l.0107-.0039c.002-.0019.0029-.0058-.001-.0127l-.0048-.0137a.0328.0328,0,0,0-.0108-.0117.02.02,0,0,1-.0127-.0088A.0259.0259,0,0,1,516.1152,398.418Zm.0284-.16h-.0127l-.0137-.0039a.0515.0515,0,0,1,.0107.0186.0226.0226,0,0,1,.0127.0087Zm.0224-.0762a.0227.0227,0,0,0-.0117-.0136l-.0137-.0118a.1823.1823,0,0,0-.0185.0391.1489.1489,0,0,0,.0332.0127l.0049-.0127Zm-.0156.2041a.2569.2569,0,0,1-.0068-.04l-.0069-.0019.0078.0175a.0223.0223,0,0,1-.0019.0176Zm.043-.2412a.2761.2761,0,0,0-.0254-.0351l-.0078.0107-.0088.0147a.1063.1063,0,0,0-.0088.0156.05.05,0,0,0,.0156.0088l.0156.0068.0059-.0088.0068-.0058Zm-.0186.3848c.0088.0019.0147.001.0166-.0039v-.01l-.0059-.0136-.01-.0137-.01-.0108c-.001.0108-.0068.0157-.0185.0157l.0136.0185Zm-.0234-.31.0009-.0029h-.0029l.001.002Zm.0195.2334-.0068-.001-.0059-.0009a.0664.0664,0,0,1,.0078.02l.0078.0049.01.0049Zm.05-.3281a.0238.0238,0,0,0-.0059-.0264c-.0058-.0088-.0136-.0166-.0175-.0224l-.0137.0136-.0137.0157.0215.0166a.03.03,0,0,0,.0254.0049Zm-.0371.3555.0078.0136Zm.0019.06a.1417.1417,0,0,0,.0254.0215.1351.1351,0,0,0,.0274.0176.0812.0812,0,0,0-.0166-.0254.15.15,0,0,0-.0205-.0215A.0158.0158,0,0,1,516.1855,398.541Zm.0166-.4043h-.0009v.001Zm.0284.41-.0293-.0362a.0207.0207,0,0,1,.0019.0186.05.05,0,0,0,.0137.0107Zm.0088-.4961a.1.1,0,0,0-.0186.0088.155.155,0,0,0-.0186.0127.1094.1094,0,0,0,.0284.0127.018.018,0,0,0,.0195-.003C516.2529,398.0762,516.25,398.0654,516.2393,398.0508Zm.0029.0664.0215-.0039.0215-.002-.0108-.0156-.0137-.0156a.0154.0154,0,0,1-.0156.0156.0521.0521,0,0,1-.0244-.0049.0637.0637,0,0,1,.0117.0186l.0059.0039Zm-.0176.1094.0029.0195.0049.0195.0059.0039.0058.003A.1987.1987,0,0,1,516.2246,398.2266Zm.01-.1094-.001.0039.0039-.002Zm.001.1582a.1871.1871,0,0,0,.0214.042.0232.0232,0,0,0-.0029-.0235A.0551.0551,0,0,0,516.2354,398.2754Zm.0712.3242v-.0039a.15.15,0,0,1-.0566-.0312l-.0107-.004.0107.0176.01.0078.01.0079-.0058-.001.0029.001h.0029a.1806.1806,0,0,0,.0342.0078Zm-.0517-.0117-.0029-.002.0009.002Zm.0322-.5469a.0143.0143,0,0,1-.0137.0147.0342.0342,0,0,1-.0195-.001l.0039.0088.002.01.0254.0127a.0469.0469,0,0,0,.0253.0049.01.01,0,0,0,.0049-.0146l-.0078-.0157-.0088-.01A.024.024,0,0,1,516.2871,398.041Zm-.0117.002a.0368.0368,0,0,0-.0176.0019l.0078.001Zm-.0127.2832c.0088.0136.0185.0273.0293.042a.0075.0075,0,0,0,.0049-.0108c0-.0049-.0039-.01-.0059-.0156a.058.058,0,0,0-.0117-.0156l-.01-.01-.0019.0059Zm.06-.23a.0209.0209,0,0,1-.0176.0059.0872.0872,0,0,1-.0166-.0049l.0088.0166a.0843.0843,0,0,1,.0312.0058c.01.003.02.0079.0293.0118a.0376.0376,0,0,0-.0176-.0176A.0383.0383,0,0,1,516.3223,398.0957Zm.0185-.05-.0224-.0039-.0215-.001.0117.0049.0117.0049a.0221.0221,0,0,0,.0137,0Zm-.042.3311a.2748.2748,0,0,1,.0215.0273l.0215.0283a.0132.0132,0,0,0,0-.0166.0841.0841,0,0,0-.01-.0176l-.0136-.0156-.0137-.0107Zm.01-.0225-.001.0127.0137.0107.0156.0088Zm.0078.2441-.001.003.0127.0009.0108-.0009Zm.0332-.542a.0237.0237,0,0,1-.0146.0059l-.0166-.002.0078.0166a.0213.0213,0,0,1-.002.0186l.0137.0078a.0856.0856,0,0,0,.02.0108l.0186.0039a.01.01,0,0,0,.0117-.0078.0465.0465,0,0,0-.0039-.0166l-.01-.0157-.0146-.01A.0216.0216,0,0,1,516.35,398.0566Zm.002.3457-.0078-.0039a.0674.0674,0,0,1,.01.0186.0443.0443,0,0,1,.0176.0127.0255.0255,0,0,0,.0176.0088Zm.0625-.3291a.3073.3073,0,0,0-.0606-.0244l-.0019.003-.002.0029.0137.0088.0195.01a.0567.0567,0,0,0,.0186.0049A.0152.0152,0,0,0,516.4141,398.0732Zm-.0342.4073c.0049-.003.0068-.0059.0049-.0117l-.0059-.0176a.0692.0692,0,0,0-.0127-.0157l-.0107-.0126v.0107l-.0059.0078Zm.0361-.3555-.0088-.0059-.0078-.0058c-.001.0088-.0049.0137-.0127.0146a.03.03,0,0,1-.02-.0009l.0049.0117.0361.0224c.0108.003.0166.003.02-.0009a.0149.0149,0,0,0-.001-.0166Zm.0069.4219.0078-.003c.0029-.0039.0029-.0087-.001-.0156a.05.05,0,0,0-.0117-.0185l-.0127-.0166-.0117-.0108-.0079.0059c.0069.0107.0147.0205.02.0293Zm.0283-.0391a.2233.2233,0,0,0-.0244-.0273l-.0264-.0284-.0117-.0029.0058.0156a.0213.0213,0,0,1,0,.0157l.0137.0078.0127.01a.0355.0355,0,0,0,.0137.0069A.0318.0318,0,0,0,516.4512,398.5078Zm-.0069-.418-.01-.0058-.0108-.0059a.0127.0127,0,0,1-.0136.01.0292.0292,0,0,1-.0186-.002l.0049.01.0029.0117.0147.0078.0156.0059.0137.0019a.0068.0068,0,0,0,.01-.0039.0182.0182,0,0,0,0-.0146Zm.03.1368a.0189.0189,0,0,0-.0019-.0176l-.01-.0156-.0156-.0118a.075.075,0,0,1-.0118-.0127.0163.0163,0,0,1-.0117.0059.1468.1468,0,0,1,.0254.0244Zm-.0449.33a.0664.0664,0,0,0,.0078.0176l.0059.0156c.0136.0049.0234.0059.0273,0a.0184.0184,0,0,0-.0019-.0156.0852.0852,0,0,0-.0108-.0205l-.0068-.0049-.0078-.0058C516.4414,398.5518,516.4365,398.5566,516.43,398.5566Zm.0068-.3886.0147.01a.057.057,0,0,0,.0195.0078l.0186.0049a.0109.0109,0,0,0,.0107-.0029c.0039-.0059.002-.0146-.0059-.0273a.0369.0369,0,0,0-.0156-.0147.0452.0452,0,0,1-.0156-.0146l-.002-.002a.0221.0221,0,0,1-.0136.0059l-.0147-.002.0069.0176A.0235.0235,0,0,1,516.4365,398.168Zm.05.3847-.0136-.0185-.0137-.0176a.0286.0286,0,0,1-.0235-.001.0661.0661,0,0,1,.0079.02.0689.0689,0,0,0,.02.0108A.0425.0425,0,0,0,516.4863,398.5527Zm-.0449.1719a.0954.0954,0,0,0,.0234.0039.0688.0688,0,0,0-.0136-.0244A.0672.0672,0,0,1,516.4414,398.7246Zm.0156-.0859.0157.0117.0195.0068.0156.003.01-.004c.0039-.0068,0-.0175-.0127-.0351l-.0147-.01-.0117-.0127-.0137.0059-.0146-.002.0068.0147a.0281.0281,0,0,1-.0009.0156Zm0,.0049a.13.13,0,0,1-.0019.0478c.0195.01.0332.0117.0371.0039.0039-.0058,0-.0176-.0127-.0351A.0678.0678,0,0,1,516.457,398.6436Zm.0059-.54.0029.0117-.0029.0118a.1375.1375,0,0,0,.0264.0166.069.069,0,0,0,.03.0068c-.0088-.01-.0195-.0176-.0273-.0254Zm.042.5918c-.0029.01-.0078.0147-.0166.0147a.0513.0513,0,0,1-.0235-.0049.0633.0633,0,0,1,.01.0185l.0049.003a.0553.0553,0,0,0,.03-.0274Zm.0137-.0781a.21.21,0,0,0-.0264-.0537l-.0078-.001-.01-.001.0078.0166a.0223.0223,0,0,1-.0019.0176A.1053.1053,0,0,0,516.5186,398.6172Zm.0087-.42-.0078-.0059-.0068-.0049a.0139.0139,0,0,1-.0127.0137.0328.0328,0,0,1-.0215-.001l.0059.0088.0019.0108a.1589.1589,0,0,0,.0323.0146c.0107.0039.0185.0039.0224-.001C516.5449,398.2256,516.54,398.2139,516.5273,398.1973Zm-.0449.039.0137.02.0146.0224a.01.01,0,0,0,.003-.0127.06.06,0,0,0-.0059-.0146l-.0117-.0147-.0088-.01Zm.0391.4317-.0117.0019-.0137-.0019a.0486.0486,0,0,1,.0078.0195l.01.0059A.075.075,0,0,0,516.5215,398.668Zm.0078-.51a.0188.0188,0,0,1-.0127.002l-.0117-.002.0049.0107.0019.0108a.1246.1246,0,0,1,.0254.0137.0443.0443,0,0,0,.0274.0019Zm.0195.083a.017.017,0,0,1-.0176.0049.06.06,0,0,1-.0175-.0049l.01.0176a.0178.0178,0,0,1,0,.0185l.0147.0108a.0884.0884,0,0,0,.0195.0088.0373.0373,0,0,0,.0186.0058c.0058,0,.01,0,.0117-.0039s0-.0136-.0078-.0263a.03.03,0,0,0-.0156-.0137.1057.1057,0,0,1-.0157-.0147Zm-.0322.0459c.01.0176.0186.0371.0283.0576.0078.002.0137.001.0156-.0039a.0123.0123,0,0,0-.0019-.0137.079.079,0,0,0-.0107-.0185.1088.1088,0,0,0-.0137-.0156.0368.0368,0,0,0-.0127-.0108Zm.0967-.0273a.2225.2225,0,0,0-.0195-.0293.3053.3053,0,0,0-.0215-.0274l-.0137.0039-.0137-.0019a.0664.0664,0,0,1,.0078.0176.02.02,0,0,1-.0039.0175l.0137.0078.0176.01.0195.0049A.0193.0193,0,0,0,516.6133,398.26Zm-.0625.0966.0029.0118.0049.0127a.0992.0992,0,0,0,.0283.01c.0069,0,.0108,0,.0137-.0039s.001-.0127-.0049-.0234a.131.131,0,0,0-.0234-.0293.0159.0159,0,0,1-.002.0127A.02.02,0,0,1,516.5508,398.3564Zm.01.1944-.0039.01.0118.002Zm.0333-.2051c.0175.0059.0292.0068.0322.002l-.001-.0118a.0338.0338,0,0,0-.0059-.0136.072.072,0,0,0-.0107-.0137l-.0088-.01a.0144.0144,0,0,1-.0156.0137.0476.0476,0,0,1-.0244-.0039.04.04,0,0,1,.0107.0185A.0646.0646,0,0,1,516.5938,398.3457Zm-.0235.0859.0059-.0087-.003-.0108-.0068-.0117-.0059-.01.0059.02Zm-.0019.1006.0156.0049a.0086.0086,0,0,0,.0117-.0039l.002-.0078a.0884.0884,0,0,0-.0088-.0195.0211.0211,0,0,0-.0137-.0118l-.002.02Zm.0527.0147-.0059-.0069-.0068-.0068a.0152.0152,0,0,1-.0156.0147.0464.0464,0,0,1-.0235-.0049l.0059.0088.0068.0107A.0975.0975,0,0,0,516.6211,398.5469Zm0-.0528q.0059-.0087-.0117-.0351l-.0147-.01a.0389.0389,0,0,1-.0117-.0137l-.0107.0059a.3292.3292,0,0,1,.0039.0449.1792.1792,0,0,0,.0293.0108C516.6133,398.498,516.6191,398.498,516.6211,398.4941Zm-.0371-.06.0137.01.0195.01.0176.0049a.0135.0135,0,0,0,.0136-.0049c.002-.0029.001-.0078-.0019-.0136a.0794.0794,0,0,0-.01-.0176.089.089,0,0,0-.0137-.0176l-.0126-.0117a.0145.0145,0,0,1-.0147.0088.05.05,0,0,1-.0166-.002l.0078.0166A.0222.0222,0,0,1,516.584,398.4336Zm.0566-.125-.01-.0205-.0118-.0186-.0127.0039a.0247.0247,0,0,1-.0146-.0019l.0039.0088.0039.0107.0195.0108A.0954.0954,0,0,0,516.6406,398.3086Zm.0137.2031a.0189.0189,0,0,0-.01-.01l-.0107-.0079a.0166.0166,0,0,1-.0127.0137.0322.0322,0,0,1-.0215-.0019l.0059.01.0039.01a.123.123,0,0,0,.0234.0127l.0117-.0127Zm.0156-.1152a.1061.1061,0,0,0-.0146-.0235c-.0069-.0058-.0127-.0126-.02-.0185a.0148.0148,0,0,1-.0137.0068.0433.0433,0,0,1-.0156-.0009l.0068.0146a.0278.0278,0,0,1-.001.0156.0451.0451,0,0,1,.0215.0137.0359.0359,0,0,0,.0215.0127l.01.001.01-.0039-.0019-.0088Zm.002.0664-.0059-.0039-.0058-.0059a.0157.0157,0,0,1-.0137.0137.0356.0356,0,0,1-.02,0,.0512.0512,0,0,1,.0088.02.1254.1254,0,0,0,.0254.0137A.0825.0825,0,0,0,516.6719,398.4629Zm-.0078-.0957-.0079-.0234a.2.2,0,0,0-.01-.0254.0367.0367,0,0,1-.0195-.0039l.01.0166a.0293.0293,0,0,1,0,.0185A.0931.0931,0,0,0,516.6641,398.3672Zm.01.06h-.0107l-.0108-.0019a.1.1,0,0,1,.0079.0215l.0136.0068A.0778.0778,0,0,0,516.6738,398.4277Z" transform="translate(-380.6187 -286.2456)"/>
      	<path d="M516.41,397.918a.0685.0685,0,0,1-.0293-.044.0794.0794,0,0,1,.0117-.0517.0662.0662,0,0,1,.0332-.0284.0437.0437,0,0,1,.041.0069.056.056,0,0,1,.0293.043.0793.0793,0,0,1-.0137.0566.0633.0633,0,0,1-.0332.0244A.0521.0521,0,0,1,516.41,397.918Zm.0117-.044c.01.001.0156,0,.0176-.0029a.02.02,0,0,0-.002-.0176l-.0117-.0185-.0117-.0088A.0722.0722,0,0,0,516.4219,397.874Zm-.0059-.0537a.1838.1838,0,0,0,.0313.0127c.0088.001.0156.001.0185-.0029.003-.0059-.001-.0176-.0127-.0352a.0533.0533,0,0,0-.0176.002.04.04,0,0,0-.0136.0117Zm.03.0586a.016.016,0,0,1-.0147.0059l.0049.0029a.025.025,0,0,0,.0186.001Zm.0283-.043c-.0019.0059-.0068.0079-.0137.0079a.0352.0352,0,0,1-.0175-.001l.0078.0166a.0229.0229,0,0,1-.003.0176l.0127.0087a.0842.0842,0,0,0,.0166-.0166.0556.0556,0,0,0,.0079-.0234Zm.0117.003-.0039-.0127-.0078-.0137a.0241.0241,0,0,1,.001.0215Zm.3389.2568a.8392.8392,0,0,0-.0459-.0781l-.0195-.0283a.5764.5764,0,0,1,.0468.0439.3053.3053,0,0,1,.043.0576.1663.1663,0,0,1,.0254.0635.0851.0851,0,0,1-.0137.0625.09.09,0,0,1-.0332.0312.071.071,0,0,1-.04.0059.1078.1078,0,0,1-.042-.0107.2537.2537,0,0,1-.0391-.0205.3891.3891,0,0,1-.0644-.0518.6762.6762,0,0,1-.0567-.0635.764.764,0,0,1-.0449-.0683.2917.2917,0,0,1-.0264-.0625.121.121,0,0,1,.0176-.0938l.0039-.0058a.2506.2506,0,0,0,.0323.039.53.53,0,0,0,.0468.0469c.0176.0166.0371.0332.0567.0488s.04.0293.0595.042a.5838.5838,0,0,0,.0518.0283A.1308.1308,0,0,0,516.8252,398.0957Zm-.3018-.1113.003-.002a.01.01,0,0,0,.0009-.0107l-.0039-.0108-.0078.0137Zm.0059.01a.4427.4427,0,0,0,.0439.0567.0177.0177,0,0,0-.0009-.0156l-.0059-.0127a.0455.0455,0,0,0-.0156-.0147.0471.0471,0,0,1-.0166-.0176Zm.0019-.0488.0127.001.0088-.0039a.0178.0178,0,0,0-.0039-.0186.036.036,0,0,0-.0117-.0156A.111.111,0,0,1,516.5312,397.9453Zm.0274.0059a.0171.0171,0,0,1-.0127.0058l-.0147-.0019.0079.0166a.019.019,0,0,1-.0039.0176l.01.0068.0137.0078.0156.0068.0147.003.01-.0039a.0243.0243,0,0,0,.001-.0127A.36.36,0,0,1,516.5586,397.9512Zm.0527.0586-.0019.0058a.0237.0237,0,0,1-.0137.0078.0556.0556,0,0,1-.0176-.0019.057.057,0,0,1,.0078.0195l.003.002.0136.0078.0157.0058.0127.002.0078-.0039c.0029-.0039.0019-.0117-.0039-.0254Zm0,.082a.0462.0462,0,0,0-.0088-.0234l-.0166-.02-.0058.0107Zm.0557-.01a.0592.0592,0,0,1-.0195-.0185.02.02,0,0,1-.0176.0058l-.0186-.0048a.069.069,0,0,1,.0108.0166.0241.0241,0,0,1,.0019.0185l.0049.0049.0068.0059a.08.08,0,0,0,.03.0126c.0108.002.0176.002.0195-.0019l.002-.0117-.0137-.0225Zm.0439.001-.0156-.0078-.0146-.0088-.0147-.01-.0137-.0117v.0078l-.0029.0078-.001.002.01.0068a.2384.2384,0,0,0,.0273.0137C516.6963,398.0859,516.7051,398.0879,516.7109,398.083Zm-.01.0869c.0127.0059.0205.0059.0234.001a.01.01,0,0,0,0-.0107l-.0058-.0147-.01-.0146-.0117-.0108-.001.0088a.0165.0165,0,0,1-.0166.0059.0558.0558,0,0,1-.02-.003l.0058.0108.0166.0146Zm.0009-.0547a.1028.1028,0,0,0,.03.0137c.01.0039.0176.0029.02-.0019s-.0009-.0157-.0107-.0313l-.01-.0029-.01-.0049a.0172.0172,0,0,1-.0147.0078.0241.0241,0,0,1-.0166-.0019.0358.0358,0,0,1,.0068.0195Zm.0176.0684a.2633.2633,0,0,0,.043.0234l-.0137-.0166-.0146-.0136A.0178.0178,0,0,1,516.72,398.1836Zm.0606-.0283a.0657.0657,0,0,1-.02-.02.018.018,0,0,1-.0176.0059l-.0176-.0049a.0481.0481,0,0,1,.01.0166.0206.0206,0,0,1,.0019.0186l.0127.0117a.1046.1046,0,0,0,.03.0117c.01.002.0156.002.0195-.0019a.0122.0122,0,0,0,0-.0118.0974.0974,0,0,0-.0117-.0224Zm.0322-.0362-.01-.0058-.0078-.0078-.0195-.001-.0186-.0039a.0873.0873,0,0,1,.0088.0166.0236.0236,0,0,1-.0039.0176l.0078.0058a.0389.0389,0,0,0,.0147.0078l.0156.0069.0147.0029a.0115.0115,0,0,0,.01-.0039l.001-.0078A.0545.0545,0,0,0,516.8125,398.1191Zm-.001.0743-.0029.0078a.0194.0194,0,0,1-.0156.0068.0437.0437,0,0,1-.02-.0029l.0029.0039.0019.0039a.0509.0509,0,0,0,.045-.0078Zm.0166-.0918a.1.1,0,0,1-.0244.0039l.0147.0078.0156.0039Zm.0088.0527-.0019.0059a.0246.0246,0,0,1-.0137.0078.038.038,0,0,1-.0176-.002.0509.0509,0,0,1,.0078.0195l.0088.0059.01.0049a.0734.0734,0,0,0,.0117-.0381Zm0-.0254-.0088-.0019.0059.0087.0039.0118.0039.0029Z" transform="translate(-380.6187 -286.2456)"/>
      	<path d="M516.959,397.7021l-.0059-.0107a.07.07,0,0,1,.0215.04.06.06,0,0,1-.01.0459.2631.2631,0,0,1,.0293.0547.3389.3389,0,0,1,.02.0586.2109.2109,0,0,1,.0019.0606.1369.1369,0,0,1-.0215.0586.111.111,0,0,1-.042.041.1029.1029,0,0,1-.0488.0117.1276.1276,0,0,1-.0517-.0117.2462.2462,0,0,1-.0508-.0254.4815.4815,0,0,1-.0908-.0762.8858.8858,0,0,1-.0811-.0976,1.1464,1.1464,0,0,1-.0674-.1065.8212.8212,0,0,1-.0439-.1.1476.1476,0,0,1-.001-.0547.1413.1413,0,0,1,.02-.05c.0059.01.0156.0235.0274.04s.0253.0351.041.0556.0332.041.0517.0645c.0186.0215.0381.0429.0576.0644.0215.0215.0411.041.0606.06a.4317.4317,0,0,0,.0625.0469.1966.1966,0,0,0,.0742.0312.064.064,0,0,0,.0615-.0176.2973.2973,0,0,0-.0146-.0439c-.0059-.0137-.0137-.0273-.0195-.041a.0881.0881,0,0,1-.0586.0049.2.2,0,0,1-.0547-.0254.339.339,0,0,1-.0332-.0254.211.211,0,0,1-.0352-.0361.16.16,0,0,1-.0234-.04.04.04,0,0,1,.0039-.0381.0367.0367,0,0,1,.0215-.0176.0647.0647,0,0,1,.03.001.1728.1728,0,0,1,.03.0117.1683.1683,0,0,1,.0235.0137.2769.2769,0,0,1,.0634.0537.6358.6358,0,0,1,.0518.0645.0637.0637,0,0,0,.01-.0332A.0791.0791,0,0,0,516.959,397.7021Zm-.4365-.0478.0107.0205.0156.0244.0039-.0049v-.0107l-.0068-.0156-.0107-.0137-.0079-.0088-.0039.0068Zm.0068-.0156.0117.0078a.05.05,0,0,0,.0147.0058l.0146.0039.01-.0039v-.0058l-.0137-.0293-.0078-.0049-.0078-.0049-.002.0049a.0172.0172,0,0,1-.0195.0088l-.0039.0117.001.0039Zm.0039-.0274.0059-.0039.0019-.0088-.0039-.01Zm.0137-.0429-.0049-.01-.0029-.0127.0009.02Zm-.0039.01a.0417.0417,0,0,1,.01.0215l.0078.0059a.1408.1408,0,0,1-.01-.0264Zm.0439.0821a.0179.0179,0,0,1-.0166.0058l-.0176-.0039.01.0166a.0182.0182,0,0,1,0,.0186l.0059.0039.0068.0049a.1271.1271,0,0,0,.0273.0127c.0108.0048.0186.0048.0245,0l-.0176-.0235c-.0059-.01-.01-.0185-.0156-.0273Zm-.0322.0468a.24.24,0,0,0,.0195.0284c.0059.01.0127.0185.0215.03l.0039-.0039a.0175.0175,0,0,0-.001-.0156.083.083,0,0,0-.0107-.0176l-.0137-.0176-.0117-.01Zm.08.0215a.0245.0245,0,0,1-.0176.0049l-.0176-.0049.0108.0176.0029.0019.01.0079.0059.0058.0059.0039.0156.0059c.0068,0,.0117,0,.0146-.0029Zm-.0049.082.01-.0048a.0153.0153,0,0,0,.001-.0118l-.0088-.0156a.0569.0569,0,0,0-.0107-.0146l-.01-.01-.0029.0137-.0068.0058Zm.0078.01a.2235.2235,0,0,0,.0244.0274l.0234.0273.001-.001a.013.013,0,0,0-.001-.0156.0771.0771,0,0,0-.01-.0176c-.0039-.0068-.01-.0107-.0147-.0176l-.0107-.0107A.02.02,0,0,1,516.6377,397.82Zm.0127-.01.0117.0059a.0569.0569,0,0,1,.0176.0156l.02.0049a.0127.0127,0,0,0,.0127-.0029.021.021,0,0,0-.0029-.0176l-.02-.0195-.0185-.02a.0235.0235,0,0,1-.0137.0048l-.0127-.0019.0059.0156A.03.03,0,0,1,516.65,397.8105Zm.0742.02-.0039.01a.0153.0153,0,0,1-.0127.0079.0473.0473,0,0,1-.0166-.002.06.06,0,0,1,.0078.02.09.09,0,0,0,.0332.0147c.0108.0019.0176.0019.02-.003a.012.012,0,0,0,.0009-.0117.14.14,0,0,0-.0127-.0234A.0957.0957,0,0,1,516.7246,397.83Zm.0029.09a.0376.0376,0,0,0-.0087-.0263l-.02-.0206-.0039.0069-.0019.0039Zm.0088.0059.0078.0058.0137.0088.0176.0069.0137.0019c.0058.001.0078,0,.01-.0029a.0117.0117,0,0,0,0-.0147.06.06,0,0,0-.01-.0175l-.0147-.0176-.0107-.0117a.0191.0191,0,0,1-.0147.01.0552.0552,0,0,1-.0185-.0029.0527.0527,0,0,1,.0078.0166A.0189.0189,0,0,1,516.7363,397.9258Zm.1953-.1358a.6713.6713,0,0,0-.0527-.0683.3124.3124,0,0,0-.0644-.0557.14.14,0,0,0-.0323-.0156c-.0127-.0029-.0185-.001-.0224.0049s-.002.0185.0078.0361a.1971.1971,0,0,0,.0312.041.2176.2176,0,0,0,.042.0371.32.32,0,0,0,.044.02A.07.07,0,0,0,516.9316,397.79Zm-.1054.1143-.0127-.0078-.0117-.0069-.0206-.0136-.0185-.0137a.0251.0251,0,0,1,.001.02l.0078.0039.0058.0039.0049.0039.0108.0088.0175.0069c.0079.0019.0118,0,.0137-.004Zm-.043.0625a.107.107,0,0,0,.0215.0156l.0195.0137c.0078.0019.0137,0,.0156-.0039s.002-.01-.0019-.0176a.0384.0384,0,0,0-.01-.0176l-.0078-.0039-.0078-.0078-.002.0068a.0168.0168,0,0,1-.0136.0079.0342.0342,0,0,1-.0176-.002Zm.0547-.0586-.0029.0059-.0127.0058a.0262.0262,0,0,1-.0176-.0019.0636.0636,0,0,1,.0078.0215.1179.1179,0,0,0,.0332.0146c.0107.002.0176.002.0215-.0029s-.002-.0176-.0156-.0371Zm.0215.1035-.0117-.0107-.0059.0029.0107.0059.0108.0039Zm0-.0058a.0807.0807,0,0,0,.0332.0146c.0117.001.0156.001.0176-.0029a.0115.0115,0,0,0,.0019-.0137.0776.0776,0,0,0-.01-.0176l-.0146-.0175-.0117-.0118a.021.021,0,0,1-.0147.01.0518.0518,0,0,1-.0175-.0029l.0078.0166a.0187.0187,0,0,1-.002.0175l.0039.004Zm.0176-.0508.0107.0058a.0907.0907,0,0,1,.0185.0157.06.06,0,0,0,.0215.0058l.0078-.0039a.0117.0117,0,0,0,.001-.0117.0577.0577,0,0,0-.0068-.0137.0448.0448,0,0,0-.0117-.0156l-.01-.0117-.0156-.002-.0117.002-.01-.002.0059.0157A.0453.0453,0,0,1,516.877,397.9551Zm.038-.0313a.1062.1062,0,0,0,.0284.0137c.0117.0039.0175.002.02-.002s.0009-.0136-.0059-.0273a.0508.0508,0,0,1-.02.0107A.0663.0663,0,0,1,516.915,397.9238Zm.0469.0606-.0058-.0078-.0069-.0059a.0134.0134,0,0,1-.001.0137.014.014,0,0,1-.0127.0078.0346.0346,0,0,1-.0195-.002.0473.0473,0,0,1,.0088.02l.0049.0039a.0624.0624,0,0,0,.0293-.0263Zm.0039-.0069a.1341.1341,0,0,0,.0127-.042l-.0029.0079a.0211.0211,0,0,1-.0166.0078.0427.0427,0,0,1-.02-.0059l.01.0176.01.0068Zm.0117-.0664-.0078-.0029.0078.0186Zm-.0029-.0185-.0039.0058.0059.001Z" transform="translate(-380.6187 -286.2456)"/>
      	<path d="M517.0762,397.5039l-.0137-.0127c-.0176-.0146-.0342-.03-.0508-.0459l-.0478-.0469c-.0147-.0156-.0284-.0293-.04-.041l-.0283-.0332a.1129.1129,0,0,1,.03-.0312.088.088,0,0,1,.041-.0176l.0518.0361c.0283.0186.0585.0391.0937.0635s.07.0508.1055.0791a1.1081,1.1081,0,0,1,.1006.0889.4738.4738,0,0,1,.0781.0927.2362.2362,0,0,1,.039.0928.1127.1127,0,0,1-.0175.086.1025.1025,0,0,1-.0606.0488.0973.0973,0,0,1-.0762-.0156.1655.1655,0,0,1-.0332-.03.1683.1683,0,0,1-.0234-.04.1033.1033,0,0,1-.0058-.0429.0778.0778,0,0,1,.0146-.042l.0049-.0069a.0946.0946,0,0,0-.0117.0391.13.13,0,0,0,.0068.0371.1848.1848,0,0,0,.0186.0332.1364.1364,0,0,0,.0292.0254l.0225.0117a.1565.1565,0,0,0-.0127-.06.3606.3606,0,0,0-.0351-.0654c-.0157-.0225-.0332-.045-.0528-.0684s-.039-.0459-.0595-.0674l-.0157-.0176a.3208.3208,0,0,1,.0283.0459.2387.2387,0,0,1,.0206.0489.1653.1653,0,0,1,.0048.0478.1.1,0,0,1-.0136.044.0769.0769,0,0,1-.0342.03.0713.0713,0,0,1-.04.0078.1274.1274,0,0,1-.0411-.0117.2514.2514,0,0,1-.04-.0195.398.398,0,0,1-.0645-.0527.6005.6005,0,0,1-.0566-.0645.4644.4644,0,0,1-.0439-.0674.2759.2759,0,0,1-.0274-.0625.1271.1271,0,0,1,.0176-.0928l.0039-.0058c.0078.0107.0186.0234.0322.0391s.03.0312.0479.0468.0371.0323.0566.0489c.0195.0136.0391.0293.0586.041s.0361.0215.0518.0293a.17.17,0,0,0,.042.0127Zm-.2481.0039.0039-.0019a.0121.0121,0,0,0,.002-.0118l-.0039-.01-.0078.0127Zm.0078.01c.0118.0176.0274.0371.043.0566a.021.021,0,0,0,0-.0156l-.0059-.0137a.0742.0742,0,0,0-.0156-.0146.05.05,0,0,1-.0176-.0166Zm.001-.05.0127.001.0088-.004c.0029-.0039.002-.01-.0029-.0175a.0543.0543,0,0,0-.0117-.0176A.1417.1417,0,0,1,516.8369,397.4678Zm.0283.0068a.0221.0221,0,0,1-.0136.0059l-.0137-.003.0078.0166a.0208.0208,0,0,1-.0039.0176l.0088.0069.0137.0087.0166.0059.0136.0029a.008.008,0,0,0,.01-.0039l.0019-.0127A.56.56,0,0,1,516.8652,397.4746Zm.0528.0586-.003.0049a.0163.0163,0,0,1-.0136.0078.0306.0306,0,0,1-.0166-.001.0533.0533,0,0,1,.0068.0186l.0029.0029.0137.0068.0156.0059.0137.002.0078-.003c.002-.0039.001-.0127-.0049-.0254Zm0,.082a.0482.0482,0,0,0-.01-.0234l-.0166-.0215-.0049.0117Zm-.01-.2929-.01.0019v.002l.0166.0107Zm.0645.2832a.0618.0618,0,0,1-.02-.02.02.02,0,0,1-.0176.0059l-.0175-.0039a.0421.0421,0,0,1,.01.0156.0225.0225,0,0,1,.002.0195l.0058.004.0059.0058a.1032.1032,0,0,0,.0313.0127c.01.0029.0166.0029.0195-.0019a.0162.0162,0,0,0,.001-.0118l-.0127-.0224Zm-.045-.2608c.0078.0049.0166.0117.0254.0166l.0235.0176.0107-.0019a.0156.0156,0,0,0-.001-.0147l-.0058-.0137-.0069-.0088-.0088-.0058a.0743.0743,0,0,1-.0175-.0176.0178.0178,0,0,1-.0137.0059l-.0137-.002.0049.0117Zm.0039-.0322c.0059,0,.0079-.002.0088-.0039l.001-.002Zm.08.0068-.0215-.0185c-.0068-.0078-.0136-.0137-.02-.02l-.0049.0019-.0136.0147.0019.0078-.0029.0078-.001.002.0078.0068.0137.0068a.0678.0678,0,0,0,.0176.0078l.0137.002c.0058.001.01,0,.0107-.0029l.001-.0079Zm.0059.2862a.0467.0467,0,0,1-.0156-.0078l-.0157-.0088-.0146-.01-.0127-.0107v.0068l-.0039.0078v.002l.0088.0068a.1523.1523,0,0,0,.0283.0137A.0258.0258,0,0,0,517.0176,397.6055Zm-.0108.0879c.0127.0048.02.0058.0244,0a.0152.0152,0,0,0,0-.0118l-.0058-.0136-.0108-.0137-.0107-.0117-.0019.0088a.0193.0193,0,0,1-.0166.0068.0609.0609,0,0,1-.0206-.0039.0215.0215,0,0,1,.0059.0117l.0176.0137A.1158.1158,0,0,0,517.0068,397.6934Zm.0215-.2764a.0323.0323,0,0,0-.0039-.0166l-.0088-.0137-.0078-.0058L517,397.375l-.0029.0059-.0088.0068Zm.0117-.0723a.0121.0121,0,0,1-.01-.0068l-.0049-.0029-.0029.0058a.0179.0179,0,0,1-.0137.0078.052.052,0,0,1-.0176-.0009l.0059.01.0029.0117a.2164.2164,0,0,0,.0312.0137c.0118.0029.02.002.0215-.0019a.0141.0141,0,0,0,0-.0127A.078.078,0,0,0,517.04,397.3447Zm-.0322.294a.1817.1817,0,0,0,.0313.0136c.01.003.0166.002.0195-.0029s0-.0146-.01-.03l-.0107-.0039-.0088-.0039a.02.02,0,0,1-.0156.0078.0273.0273,0,0,1-.0157-.0019.0363.0363,0,0,1,.0059.0185Zm.0176.0683a.4892.4892,0,0,0,.043.0235.0788.0788,0,0,0-.0137-.0176l-.0147-.0137A.0151.0151,0,0,1,517.0254,397.707Zm.0605-.0293a.0612.0612,0,0,1-.0195-.0195.0158.0158,0,0,1-.0176.0059l-.0185-.0039.0107.0156a.0266.0266,0,0,1,.002.0195l.0117.01a.0973.0973,0,0,0,.0312.0137c.01.0019.0157.0019.0186-.003a.0122.0122,0,0,0,.001-.0117.1213.1213,0,0,0-.0127-.0225Zm-.0254-.2343c.0215.01.0352.01.0391.0039s0-.0176-.0117-.0352l-.0156-.01-.0118-.0136a.0178.0178,0,0,1-.0126.0078l-.0157-.0039.0069.0156a.0268.0268,0,0,1-.002.0156Zm.0088-.0743-.0068-.0039a.0161.0161,0,0,1,0,.02l.0107.0117a.0958.0958,0,0,0,.0206.01.1822.1822,0,0,0,.0234.0059Zm.0489.2735-.01-.0069-.0078-.0068-.0186-.0019a.0844.0844,0,0,1-.0195-.004l.0088.0176a.0173.0173,0,0,1-.0039.0166l.0088.0059.0136.0088.0157.0058.0156.0039a.0092.0092,0,0,0,.0088-.0048l.001-.0079A.0447.0447,0,0,0,517.1182,397.6426Zm-.001.0732-.002.0078a.02.02,0,0,1-.0166.0069.0482.0482,0,0,1-.0205-.003l.0039.0039.002.004a.0444.0444,0,0,0,.0449-.0088Zm.0039-.2207c.01.0029.0156.002.0185-.0019s.003-.0088-.0009-.0166l-.01-.0176-.0088-.0059-.0078-.0058-.0029.0058a.0175.0175,0,0,1-.0137.0088.0266.0266,0,0,1-.0156-.0029Zm.0059-.0752a.0426.0426,0,0,1-.0225,0l.0049.01.0019.0117.0117.0059.0157.0078.0175.0019.01-.0058Zm.0078.2051a.1117.1117,0,0,1-.0254.0039l.0156.0068.0146.0039Zm.0078.0527-.002.0059-.0136.0078a.0553.0553,0,0,1-.0176-.0019.028.028,0,0,1,.0078.0195l.01.0058.01.004a.0908.0908,0,0,0,.0117-.0381Zm-.0078-.17.0273.0254c.0088.01.0176.0176.0254.0273a.0229.0229,0,0,0-.002-.0195.0443.0443,0,0,0-.0107-.0156l-.0146-.0108a.0291.0291,0,0,1-.0118-.0126A.0192.0192,0,0,1,517.1348,397.5078Zm.0078.1436-.0078-.002.0058.0088.003.0117.0039.003Zm.0176-.1436a.1473.1473,0,0,0,.0312.0137c.0117.0039.0186.0039.0215-.001s0-.0176-.0127-.0361l-.0147-.01a.0367.0367,0,0,1-.0117-.0127.0231.0231,0,0,1-.0136.0069l-.0157-.004.0078.0176a.0192.0192,0,0,1-.0039.0176Zm.08.0234-.0078-.0058-.0078-.0059-.0019.0059a.0188.0188,0,0,1-.0137.01l-.0176-.002.0059.0078.0019.01.002.0029a.1279.1279,0,0,0,.0322.0137c.0107.0029.0166.0019.0186-.0029C517.2559,397.5586,517.2539,397.5479,517.24,397.5312Zm-.0449.0372.0156.0195a.1243.1243,0,0,1,.0157.0176.0378.0378,0,0,0-.0078-.0254.14.14,0,0,0-.02-.0215l-.0029.0078Zm.0235-.0684a.0306.0306,0,0,1,.0068.0137.0976.0976,0,0,0,.02.01Zm.041.0742a.016.016,0,0,1-.0166.0059l-.0166-.0049.01.0156a.0265.0265,0,0,1,0,.02l.0127.0087a.1193.1193,0,0,0,.03.0137c.0117.0039.0176.0039.0215-.001.0019-.0048,0-.0127-.0078-.0263a.0342.0342,0,0,0-.0157-.0157A.0853.0853,0,0,1,517.26,397.5742Zm.0136.1-.0019-.0156-.01-.0166-.0137-.0146-.0126-.0118Zm.043-.0781c-.0156-.0176-.0342-.0371-.0547-.0566l-.0039-.002.0078.0176a.0248.0248,0,0,1-.0039.0185l.0117.0069.02.0107A.0654.0654,0,0,0,517.3164,397.5957Zm-.01.084c.0176.0058.0293.0058.0323,0l-.001-.01-.0068-.0156-.0108-.0137-.0078-.01-.0029.0078a.0183.0183,0,0,1-.0176.0078.0327.0327,0,0,1-.0186-.0049.0568.0568,0,0,1,.01.0186l.0059.0039A.0652.0652,0,0,1,517.3066,397.68Zm-.0273.0049a.2538.2538,0,0,1,.0156.0381c.01.0019.0156.0009.0186-.003s.001-.0068-.001-.0117l-.0068-.0156-.0108-.0156-.01-.01-.002.0146Zm.0293.0908.0127.0068.0146.0049.0147.0029a.0073.0073,0,0,0,.0088-.0039.0194.0194,0,0,0,0-.0146.088.088,0,0,0-.0108-.0176l-.0146-.0176-.0108-.01-.0107.0078h-.0117A.3083.3083,0,0,1,517.3086,397.7754Zm.0449-.1348-.0137-.0176-.0156-.0166a.0459.0459,0,0,1-.0195-.0009l.0049.0078.0009.0107.01.0059A.1028.1028,0,0,0,517.3535,397.6406Zm-.0469.1865.0157.003a.0135.0135,0,0,0,.0117-.0049c.0019-.0029.001-.0068-.002-.0147a.0523.0523,0,0,0-.0195-.0244l-.0039-.0019A.1276.1276,0,0,1,517.3066,397.8271Zm.0176-.1044.0059.0039.0058.0029.0176.0146c.0176.0069.0274.0079.0313.002q.0028-.003,0-.0117l-.0088-.0156a.1135.1135,0,0,0-.0137-.0176l-.0127-.0127-.0019-.001a.028.028,0,0,1-.0137.0078l-.0176-.0029a.0339.0339,0,0,1,.0078.0156A.0245.0245,0,0,1,517.3242,397.7227Zm.0488.0644-.0039.0059-.0136.0078a.053.053,0,0,1-.0176-.002.0411.0411,0,0,1,.01.0215l.0127.0078a.1146.1146,0,0,0,.0273-.0293Zm.0176-.082a.0934.0934,0,0,0-.0136-.0254.1553.1553,0,0,0-.0157-.0274l-.0117-.0009-.0107-.0039a.0423.0423,0,0,1,.0107.0166.0242.0242,0,0,1,0,.0185l.0059.0049.0068.0039.0137.0078A.0449.0449,0,0,0,517.3906,397.7051Zm-.0381.1269-.0058-.0058-.002.0058-.0019.002Zm.0479-.09-.0039-.0029a.0121.0121,0,0,1-.001.0127.017.017,0,0,1-.0127.0087.0551.0551,0,0,1-.0176-.0009.0726.0726,0,0,1,.0069.0205.0581.0581,0,0,0,.0195.0088A.0815.0815,0,0,0,517.4,397.7422Zm-.0059-.0244-.0088-.0039a.0448.0448,0,0,1,.0108.0185l.0029.002Z" transform="translate(-380.6187 -286.2456)"/>
      	<path d="M517.4824,397.0645c-.0058-.0118-.0117-.0245-.0195-.0372s-.0156-.0234-.0244-.0351l-.02-.0293a.4928.4928,0,0,1,.0468.0449.3017.3017,0,0,1,.044.0567.1768.1768,0,0,1,.0244.0625.08.08,0,0,1-.0137.0625.0706.0706,0,0,1-.0566.0351.1252.1252,0,0,1-.0733-.0176.1538.1538,0,0,1,.0362.0762.1143.1143,0,0,1-.0176.08.0866.0866,0,0,1-.0439.04.1455.1455,0,0,1-.0538.0108.2044.2044,0,0,1-.0585-.0108.2972.2972,0,0,1-.0508-.0244.311.311,0,0,1-.0567-.0469.3161.3161,0,0,1-.0459-.0566.2555.2555,0,0,1-.03-.0664.2379.2379,0,0,1-.0118-.0742.1438.1438,0,0,1,.02-.0664.0959.0959,0,0,1,.0644-.043.1313.1313,0,0,1,.086.0107c-.0059-.0127-.0118-.0234-.0166-.0361a.2394.2394,0,0,1-.0118-.0371.0927.0927,0,0,1-.0009-.0488.1347.1347,0,0,1,.0185-.044l.0049-.0068a.4642.4642,0,0,0,.0811.0937.9483.9483,0,0,0,.0986.0733c.0137.0088.0273.0166.04.0234A.0871.0871,0,0,0,517.4824,397.0645Zm-.3926.07c.0059.0039.0127.0058.0176.01a.113.113,0,0,0,.02.0069.1984.1984,0,0,1-.0235-.0557l-.0078.002A.1181.1181,0,0,0,517.09,397.1348Zm0,.0048a.184.184,0,0,0,.0118.0528c.0107.0029.0175.0029.0214-.002a.0176.0176,0,0,0-.0019-.0166l-.01-.02-.0117-.0059Zm.1836-.0322-.0234-.0322c-.0068-.0107-.0137-.0215-.0215-.0322a.1519.1519,0,0,0-.0332-.0059.1407.1407,0,0,0-.0351.002.0844.0844,0,0,0-.0323.0136.08.08,0,0,0-.0244.0235.5229.5229,0,0,0,.0567.07.388.388,0,0,0,.08.0664.2364.2364,0,0,0,.0791.0351.1173.1173,0,0,0,.0772-.01.1118.1118,0,0,0-.0117-.0244.039.039,0,0,0-.0118-.0166A.4.4,0,0,1,517.2734,397.1074Zm-.1562.1182.01.0058a.0439.0439,0,0,0,.0136.0059l.0137.0029.0088-.0039a.0122.0122,0,0,0,.001-.0117l-.0059-.0137-.0117-.0117-.0108-.0088-.0029.0069-.0117.0078a.02.02,0,0,1-.0147,0Zm.0107-.0635.0049.01.002.0117.01.0059.0117.0048-.0117-.0146-.0107-.0156Zm.0323.1289a.1077.1077,0,0,0,.0312.0137c.01.0029.0156.0019.0186-.002.0039-.0058-.001-.0175-.0127-.0341a.0844.0844,0,0,1-.0147-.0108.0287.0287,0,0,1-.0107-.0137.0166.0166,0,0,1-.0176.0059l-.0176-.0049.0078.0147a.0259.0259,0,0,1,.0039.0156Zm.0771-.0342-.0127-.0068-.0137-.0078a.3294.3294,0,0,1-.041-.0332h-.0019a.0367.0367,0,0,1,.0068.0156.0267.0267,0,0,1-.001.0176l.0059.0058.0156.0088.0156.0069.0157.0039.0088-.0049Zm-.001.0967c.0078,0,.0117,0,.0137-.0029a.012.012,0,0,0,0-.0117l-.0078-.0147-.0108-.0137-.0087-.01-.003.0078a.0164.0164,0,0,1-.0166.0078.0567.0567,0,0,1-.0195-.0039l.0039.0059.0166.0146a.1683.1683,0,0,0,.0166.0117l.0078.0049Zm-.0371-.3926.0078.0108.0059.0107a.092.092,0,0,0,.0234.0078c.0078.003.0137.002.0166-.0019a.0221.0221,0,0,0-.0009-.0156.1736.1736,0,0,0-.0108-.0176l-.0137-.0176-.0127-.0117a.0908.0908,0,0,1-.0117.0293Zm.0488.3008-.0029.0078a.0187.0187,0,0,1-.0127.0078l-.0176-.0019.0049.0088.003.0088.0107.0068.0156.0088.0166.0039.0108-.0039a.0162.0162,0,0,0-.001-.0147l-.0059-.0127Zm-.0312-.3369.0117.0068a.0715.0715,0,0,1,.0195.0176.2393.2393,0,0,1-.0234-.0527l-.0029-.002-.0029.0157Zm.0254.0986.0107.0059.0147.0059a.0316.0316,0,0,0,.0156.0029l.01-.0029a.0243.0243,0,0,0-.002-.02.0365.0365,0,0,0-.01-.0166l-.0078-.0049-.0078-.0058-.0019.0058a.0147.0147,0,0,1-.0137.0079.0535.0535,0,0,1-.0176-.001.0513.0513,0,0,1,.0078.0205Zm.0312.34.01.0049.0156.0068.0157.0039.0087-.0039c.002-.002.003-.0059,0-.0127l-.0058-.0137a.09.09,0,0,0-.0166-.0156.0577.0577,0,0,1-.0176-.0166.014.014,0,0,1-.0166.0059.0478.0478,0,0,1-.0176-.0049l.01.0166a.021.021,0,0,1,.001.0185l.0068.0069Zm-.0029.0058-.0127-.0117-.0049.0039Zm.0088-.3007a.3277.3277,0,0,0,.0312.0312c.0157.0068.0254.0068.0293,0,.002-.0019.002-.0078-.0009-.0137a.0871.0871,0,0,0-.0108-.02l-.0156-.0107-.0107-.0127a.0484.0484,0,0,1-.0147.0068l-.0156-.0019A.0294.0294,0,0,1,517.2793,397.0684Zm.0059.2461.01.0078a.1352.1352,0,0,0,.0313.0146c.0117.0039.0195.0029.0234-.0029v-.01l-.0058-.0117-.0088-.0117-.0079-.0078a.0457.0457,0,0,1-.0175-.0157.02.02,0,0,1-.0147.0059l-.0146-.002a.0377.0377,0,0,1,.0078.0167A.0211.0211,0,0,1,517.2852,397.3145Zm.0175-.2735.0078.0059.0137.0078.0166.0078.0147.002a.0112.0112,0,0,0,.01-.004l.002-.01-.07-.0449a.0417.0417,0,0,1,.0078.0175A.0192.0192,0,0,1,517.3027,397.041Zm.01.2363.0068.0039.0147.01.0166.0059.0156.0029a.0091.0091,0,0,0,.0088-.0049.0184.0184,0,0,0,0-.0146l-.0078-.0147a.0625.0625,0,0,1-.0254.01Zm.0391-.1777-.002.0068-.01.0079h-.0127a.2107.2107,0,0,0,.0225.0185.0865.0865,0,0,0,.0215.0156.01.01,0,0,0,.01-.0019.0126.0126,0,0,0-.002-.0137l-.0059-.0137-.0058-.0078-.0078-.0058Zm.0293.2529-.0039-.0058-.0079-.0049-.0078-.0068-.0029.0068-.0137.0078a.05.05,0,0,1-.0176-.0019l.0049.0087.0039.01.0127.0078A.065.065,0,0,0,517.3809,397.3525Zm-.0039-.292-.002.0059a.0147.0147,0,0,1-.0137.0078.0364.0364,0,0,1-.0175-.0019l.0058.01.002.0118.0117.0058.0166.0078.0146.002.0108-.002.0019-.01-.0058-.0137-.0088-.0137Zm.0273.2471-.0088-.0068-.0088-.0059-.0019.0059a.0148.0148,0,0,1-.0137.0078.027.027,0,0,1-.0176-.002.0715.0715,0,0,1,.0078.0215.1742.1742,0,0,0,.0274.0137A.1364.1364,0,0,0,517.4043,397.3076Zm.0019-.0088v-.0312a.0223.0223,0,0,1-.0136.0019l-.0137-.0019a.0523.0523,0,0,1,.0078.0215l.01.0048Zm-.0058-.0468-.0029-.0118-.0079.01-.0087.0078h.0117l.0078-.0039Zm-.0117-.0987.01.0069a.1447.1447,0,0,0,.0323.0156c.0117.0029.0185.0019.0224-.0029s.002-.0137-.0058-.0264l-.0078-.0088-.0079-.0068a.0414.0414,0,0,1-.0175-.0166.021.021,0,0,1-.0137.0068l-.0156-.002a.0448.0448,0,0,1,.0078.0166A.029.029,0,0,1,517.3887,397.1533Zm.0263-.04.0088.0058.0157.01.0156.0059.0156.0019.0078-.0039a.0136.0136,0,0,0,0-.0137l-.0078-.0156-.0137-.0156-.01-.0117-.01-.001a.0125.0125,0,0,1-.0137.0049l-.0136-.002a.0427.0427,0,0,1,.0078.0176A.0283.0283,0,0,1,517.415,397.1133Zm.0713-.041a.1751.1751,0,0,1-.0312.0039l.01.0088.0079.0048a.0317.0317,0,0,0,.0214.0059Zm.0039.06-.0019.0059a.0165.0165,0,0,1-.0137.0078.0358.0358,0,0,1-.0176-.002.0323.0323,0,0,1,.0078.0215l.0157.0078.01-.0107a.06.06,0,0,0,.0078-.0244Zm-.0156.0469-.01-.0068-.0019.0068-.0059.0058A.0335.0335,0,0,0,517.4746,397.18Zm.0264-.0488-.003-.0235H517.49l-.0078-.0019a.0464.0464,0,0,1,.0088.02Z" transform="translate(-380.6187 -286.2456)"/>
    </g>
</svg>
