<svg id="Layer_1" data-name="Layer 1" xmlns="http://www.w3.org/2000/svg" viewBox="0 0 404.2549 509.1673"><path d="M54.79,254.9228q0-93.3638.0272-186.7273C54.8655,35.6482,75.8541,9.149,107.175,1.781a32.5322,32.5322,0,0,1,7.3755-.7535Q217.6239.969,320.6973.8994a12.88,12.88,0,0,1,10.0669,4.2534q61.6724,64.692,123.3546,129.3747a17.3481,17.3481,0,0,1,4.8969,12.5994c-.0543,98.094.1051,196.1885-.1132,294.2822-.0884,39.6547-29.6238,68.5977-69.2554,68.6165q-132.7011.0624-265.4018.0017c-40.2-.0166-69.421-29.2205-69.4456-69.3731Q54.7423,347.7886,54.79,254.9228ZM308.6455,25.0674c-1.9313-.13-3.3785-.3136-4.8257-.3139q-89.8924-.0211-179.7849.0153C97.4382,24.8069,79.5288,42.8935,79.52,69.653q-.0621,185.263-.0037,370.5262c.0073,27.2259,17.9794,45.1209,45.3058,45.1327q131.9749.0567,263.95.0015c27.52-.0107,45.4922-18.0214,45.4983-45.5241q.03-138.9471.0076-277.8943v-5.4636c-23.52,0-46.2516.0231-68.9831-.0054-33.7236-.0422-56.5689-22.818-56.6394-56.4984-.0483-23.0747-.01-46.15-.01-69.2246C308.6454,28.9193,308.6455,27.1355,308.6455,25.0674ZM417.2844,131.7521,334.0435,44.3786a9.9756,9.9756,0,0,0-.7288,2.12c.0679,19.5846-.3011,39.1859.4043,58.7483.5209,14.4494,12.4078,25.5225,26.9847,26.2663,8.1151.4141,16.2632.2089,24.3966.2322C395.3429,131.7744,405.5858,131.7521,417.2844,131.7521Z" transform="translate(-54.7684 -0.8899)"/><path d="M244.4444,314.7412v-5.9147c0-40.9911-.0643-81.9824.1116-122.9727a23.9157,23.9157,0,0,1,2.6128-10.8048c2.5067-4.68,8.0473-6.2667,12.947-4.8288a12.5028,12.5028,0,0,1,8.8779,10.8409c.1391,1.8162.0842,3.6487.0844,5.4738q.0055,61.4867.003,122.9732v5.3838l1.577,1.3334a30.1488,30.1488,0,0,1,2.8458-4.3424C288.52,295.7064,303.4532,279.4486,318.79,263.58a19.7043,19.7043,0,0,1,10.6435-5.2274c4.4257-.6578,8.36,1.9571,10.3614,6.3171,1.9872,4.3287,1.924,8.67-.872,12.7272a23.89,23.89,0,0,1-2.2116,2.685q-34.6046,37.1651-69.243,74.298c-7.1945,7.6939-14.0542,7.695-21.2807-.0387q-34.67-37.1031-69.195-74.342c-5.8093-6.2552-5.8329-13.699-.2157-18.9414,4.9611-4.63,12.4253-3.9037,18.1228,2.16,15.1134,16.0846,30.0975,32.2909,45.11,48.47,1.0981,1.1833,2.0156,2.5341,3.017,3.807Z" transform="translate(-54.7684 -0.8899)"/><path d="M257.0476,400.4293c33.03-.0014,66.0616-.0927,99.09.1364a19.591,19.591,0,0,1,10.0649,3.1737c3.82,2.5146,5.2509,6.8818,4.1348,11.4676a12.0161,12.0161,0,0,1-8.826,9.2293,22.5008,22.5008,0,0,1-5.9062.6429q-98.5933.0472-197.1869-.0344a20.68,20.68,0,0,1-8.1868-1.4817A11.88,11.88,0,0,1,143.509,409.97c1.2371-5.5727,6.4289-9.5114,12.953-9.52Q206.7548,400.3875,257.0476,400.4293Z" transform="translate(-54.7684 -0.8899)"/></svg>