<?xml version="1.0" encoding="utf-8"?>
<svg viewBox="126.371 118.321 278.121 166.404" xmlns="http://www.w3.org/2000/svg"><g id="layer1" transform="matrix(0.458769, 0, 0, 0.458769, -11.214808, -116.254822)" style=""><text transform="scale(0.26458333)" id="text65005" style="font-family: sans-serif; font-size: 40px; font-weight: 400; line-height: 50px; white-space: pre;"/><path style="fill:#000000;stroke-width:1" d="m 559.53054,873.74549 c -51.7192,-2.31378 -88.7352,-18.46466 -109.8877,-47.94631 -5.6178,-7.82978 -10.3243,-17.01191 -13.6539,-26.63785 l -1.2355,-3.57187 -64.4792,-17.44515 c -35.46352,-9.59481 -65.06459,-17.63153 -65.78012,-17.85936 l -1.30097,-0.41424 -1.68045,-6.21771 c -0.92425,-3.41974 -1.6485,-6.34992 -1.60945,-6.5115 0.12435,-0.51452 125.45029,-128.43403 125.62739,-128.22728 0.093,0.10898 3.9399,14.06475 8.5477,31.01282 7.9687,29.30958 8.3552,30.83655 7.913,31.26268 -0.2558,0.24641 -12.1927,11.06757 -26.5265,24.04701 -14.3338,12.97945 -26.0928,23.68124 -26.1313,23.78176 -0.038,0.10051 15.916,4.15439 35.4542,9.00862 19.5382,4.85423 35.5619,8.8559 35.6083,8.8926 0.046,0.0367 0.6632,2.17372 1.3709,4.74891 0.7077,2.5752 1.3578,4.75327 1.4447,4.84016 0.1503,0.15034 39.8274,-0.30146 57.6011,-0.6559 l 8.378,-0.16708 0.1716,1.2987 c 0.9012,6.82064 2.7509,13.55632 4.8978,17.83516 5.1488,10.26168 14.0026,16.64671 26.5933,19.17796 4.8119,0.96742 8.1846,1.26994 14.2875,1.28159 10.1695,0.0193 17.0694,-1.36007 23.6802,-4.73438 9.8612,-5.03335 15.0658,-14.36343 14.4644,-25.9294 -0.5855,-11.25809 -5.3126,-17.21783 -17.1696,-21.64664 -7.3087,-2.72993 -21.105,-5.38864 -37.2469,-7.17791 -22.0504,-2.4442 -41.5938,-6.35552 -57.0177,-11.41126 -36.3301,-11.90851 -55.8207,-31.41899 -63.6406,-63.7055 -3.8498,-15.89458 -5.0217,-37.55077 -2.8721,-53.07112 4.8631,-35.11096 25.7863,-63.55975 58.9536,-80.15759 16.4117,-8.21293 35.0762,-13.25702 56.7716,-15.34266 12.3062,-1.18303 30.9793,-1.01826 44.5823,0.39341 12.9187,1.34065 24.1091,3.66761 34.925,7.26239 13.0598,4.34057 23.938,10.10805 33.7344,17.88558 3.7079,2.94383 11.2497,10.49048 14.2548,14.26408 11.7321,14.73239 19.5253,33.61586 23.0425,55.83416 0.368,2.32444 0.7586,4.67655 0.8681,5.22691 0.1879,0.94394 1.2106,-1.27146 18.0468,-39.09219 l 17.8476,-40.09284 h 35.4306 c 33.6187,0 35.4237,0.0237 35.2951,0.46302 -0.075,0.25466 -8.3056,18.79085 -18.2912,41.19153 -9.9856,22.40067 -18.0645,40.81747 -17.9531,40.92621 0.1114,0.10874 30.1467,17.58078 66.7452,38.82677 l 66.5427,38.62906 v 7.88052 7.88052 l -92.0386,54.72594 c -50.6212,30.09927 -92.0894,54.67514 -92.1515,54.61304 -0.2119,-0.21185 -0.644,-76.24045 -0.4338,-76.32915 1.7258,-0.72848 75.8239,-39.6758 75.8122,-39.8483 -0.018,-0.26568 -50.0208,-27.92202 -50.499,-27.93081 -0.1628,-0.003 -7.4528,16.06661 -16.1998,35.71021 l -15.9037,35.71566 0.1589,4.96403 c 0.2722,8.50581 -0.63,18.81334 -2.4262,27.71821 -5.2102,25.83039 -18.8613,48.28196 -39.3417,64.70433 l -2.7205,2.18146 -4.2544,9.55188 -4.2544,9.55191 -14.6633,0.14412 -14.6633,0.14409 -2.5136,0.85889 c -3.579,1.22298 -11.7822,3.31541 -17.1979,4.38676 -15.3739,3.04136 -33.7249,4.17772 -53.3135,3.30134 z m 128.8039,-227.61033 c 5.9201,-13.29576 10.7638,-24.2969 10.7638,-24.44698 0,-0.18168 -1.6138,-0.23449 -4.8287,-0.15801 -6.1303,0.14584 -56.0093,0.84107 -74.1494,1.03351 -7.5671,0.0803 -14.0762,0.19487 -14.4646,0.25466 -0.6505,0.10013 -0.7195,0.0209 -0.8756,-1.00489 -1.5507,-10.1916 -4.6348,-17.26455 -9.9358,-22.78618 -4.6905,-4.88573 -10.8848,-7.9225 -18.3495,-8.99585 -10.1424,-1.45836 -20.9141,-0.10731 -28.2232,3.53993 -2.8316,1.41297 -4.2443,2.3992 -6.4322,4.49042 -5.1372,4.91038 -7.4869,11.71218 -6.7892,19.65342 0.4484,5.10408 1.6023,8.46418 4.0267,11.72569 3.5558,4.78351 10.4973,8.42768 21.1785,11.1184 6.9235,1.74408 15.7802,3.10807 29.9669,4.61505 35.4857,3.76947 62.2188,10.82123 80.6428,21.27228 1.9221,1.09031 4.09,2.39888 4.8177,2.90793 0.7276,0.50905 1.45,0.93211 1.6054,0.94013 0.1554,0.008 5.1263,-10.86376 11.0464,-24.15951 z" id="path69331"/></g></svg>