<svg id="Layer_1" data-name="Layer 1" xmlns="http://www.w3.org/2000/svg" viewBox="0 0 17.3056 17.4023">
  <path d="M18.834,16.5723c-4.6494,0-7.6026-2.8828-7.6026-7.5059a8.9257,8.9257,0,0,1,.5538-3.0674,1.1958,1.1958,0,0,0,.1318-.51.5422.5422,0,0,0-.5625-.5537,1.8086,1.8086,0,0,0-.5625.1142,9.0967,9.0967,0,0,0-5.4492,8.4287,8.7009,8.7009,0,0,0,9.0439,8.8594,8.7525,8.7525,0,0,0,8.1387-5.1856,1.5867,1.5867,0,0,0,.123-.58.5537.5537,0,0,0-.5449-.5713,1.1841,1.1841,0,0,0-.4922.123A9.1146,9.1146,0,0,1,18.834,16.5723Z" transform="translate(-5.3428 -4.9356)" style="fill: #1c1c1e"/>
</svg>
