<svg id="Layer_1" data-name="Layer 1" xmlns="http://www.w3.org/2000/svg" viewBox="0 0 19.6172 19.6523"><path d="M14.8965,4.6894a.8921.8921,0,1,0-1.7842,0V6.4736a.8921.8921,0,0,0,1.7842,0Zm3.5156,3.27a.8887.8887,0,1,0,1.2656,1.248l1.2657-1.2656a.8887.8887,0,1,0-1.2569-1.2568ZM8.3223,9.207a.8884.8884,0,0,0,1.2568.0088A.9049.9049,0,0,0,9.5879,7.959L8.3223,6.6846a.8887.8887,0,0,0-1.2657,1.248ZM14,8.9873a4.6319,4.6319,0,1,0,4.623,4.6318A4.6609,4.6609,0,0,0,14,8.9873Zm8.9209,5.5283a.8921.8921,0,0,0,0-1.7842H21.1367a.8921.8921,0,0,0,0,1.7842ZM5.0879,12.7314a.8921.8921,0,1,0,0,1.7842H6.8633a.8921.8921,0,1,0,0-1.7842Zm14.581,5.3a.8887.8887,0,0,0-1.248,1.2657l1.2744,1.2656a.8887.8887,0,0,0,1.2481-1.2656ZM7.0566,19.2881a.9052.9052,0,0,0-.0175,1.2568.916.916,0,0,0,1.2656.0176l1.2744-1.2656A.905.905,0,0,0,9.5879,18.04a.916.916,0,0,0-1.2656-.0088Zm7.84,1.4765a.8921.8921,0,0,0-1.7842,0v1.7842a.8921.8921,0,1,0,1.7842,0Z" transform="translate(-4.1914 -3.793)" style="fill: #1c1c1e"/></svg>