<svg id="Layer_1" data-name="Layer 1" xmlns="http://www.w3.org/2000/svg" viewBox="0 0 18.0879 18.9229"><path d="M15.3711,7.01a.2013.2013,0,0,0,.2021-.1846c.2637-1.459.2549-1.4854,1.7666-1.7666.1143-.0264.1934-.0879.1934-.2109a.2166.2166,0,0,0-.1846-.211c-1.5205-.2988-1.4853-.3252-1.7754-1.7578a.2027.2027,0,0,0-.4043-.0088c-.29,1.45-.246,1.4854-1.7666,1.7666a.2169.2169,0,0,0-.1933.211.21.21,0,0,0,.1846.2109c1.5293.3076,1.5117.3164,1.7753,1.7666A.2014.2014,0,0,0,15.3711,7.01Zm4.2275,6.0644a.3354.3354,0,0,0,.334-.3164c.2813-2.3291.3867-2.3994,2.76-2.7685.2109-.0352.334-.1495.334-.3428a.34.34,0,0,0-.2989-.334c-2.3994-.4658-2.5136-.44-2.7949-2.7685a.3395.3395,0,0,0-.6767-.0088c-.2989,2.373-.378,2.4433-2.795,2.7773a.3336.3336,0,0,0-.2988.334.3422.3422,0,0,0,.2988.3428c2.4258.4746,2.4873.457,2.795,2.7861A.3357.3357,0,0,0,19.5986,13.0742Zm-6.8027,8.5342a7.546,7.546,0,0,0,7.1895-4.5439.7971.7971,0,0,0-.0528-.8965.6984.6984,0,0,0-.7734-.044,6.8505,6.8505,0,0,1-2.584.4571c-3.9375,0-6.5215-2.4961-6.5215-6.3457a7.1785,7.1785,0,0,1,.5274-2.8213.8068.8068,0,0,0,.0087-.87c-.1757-.2022-.5009-.2286-.9052-.07a7.8438,7.8438,0,0,0-4.7461,7.3653A7.5688,7.5688,0,0,0,12.7959,21.6084Z" transform="translate(-4.9385 -2.6855)" style="fill: #1c1c1e"/></svg>