<svg id="Layer_1" data-name="Layer 1" xmlns="http://www.w3.org/2000/svg" viewBox="0 0 431.0904 512"><path d="M538,640c-3.3728-.7607-6.76-1.4634-10.1163-2.2913a79.9617,79.9617,0,0,1-60.8394-77.27q-.1869-135.9834.0107-271.9672a79.6387,79.6387,0,0,1,79.203-79.41q96.2374-.31,192.4765,0c43.4179.1389,79.0685,35.5388,79.1811,78.9053q.3544,136.4826.01,272.9669c-.0847,39.1925-29.3589,72.3547-68.1685,78.1615A16.85,16.85,0,0,0,747,640ZM507,424.2432q0,66.74.0074,133.481c.015,25.2909,17.0242,42.26,42.3752,42.2686q92.9866.0327,185.9734.002c25.6821-.0065,42.6312-16.8935,42.6366-42.5172q.0282-132.9807,0-265.9615c-.0054-25.6536-16.9207-42.5046-42.633-42.511q-92.7367-.0232-185.4736-.0013c-26.0481.005-42.8727,16.7811-42.8817,42.7582Q506.9812,358.0026,507,424.2432Z" transform="translate(-466.9399 -128)"/><path d="M827,128c4.0109.953,8.0512,1.7975,12.0282,2.876,34.4007,9.3283,58.8417,40.5266,58.9018,76.1495q.2544,150.9381.0506,301.8768c-.0034,12.1935-8.5355,21.0725-19.9693,21.0817-11.5925.0093-19.9981-8.9728-20-21.5513q-.0284-149.1891-.0211-298.3784c-.0051-21.8871-13.2539-38.0216-34.1162-41.5362a57.3045,57.3045,0,0,0-9.4575-.4983q-107.7062-.0386-215.4122-.0709a32.9477,32.9477,0,0,1-9.8243-1.25c-7.5618-2.4044-12.8184-9.8506-13.15-17.7737a19.9016,19.9016,0,0,1,11.423-18.96c1.4918-.7059,3.0306-1.3126,4.5477-1.965Z" transform="translate(-466.9399 -128)"/></svg>